G04 #@! TF.FileFunction,Copper,L2,Bot,Signal*
%FSLAX46Y46*%
G04 Gerber Fmt 4.6, Leading zero omitted, Abs format (unit mm)*
G04 Created by KiCad (PCBNEW 4.0.6) date 10/24/17 22:49:42*
%MOMM*%
%LPD*%
G01*
G04 APERTURE LIST*
%ADD10C,0.050000*%
%ADD11R,1.600000X1.600000*%
%ADD12O,1.600000X1.600000*%
%ADD13C,1.600000*%
%ADD14R,1.800000X1.800000*%
%ADD15C,1.800000*%
%ADD16R,2.000000X2.600000*%
%ADD17O,2.000000X2.600000*%
%ADD18C,1.500000*%
%ADD19C,1.600000*%
%ADD20C,2.000000*%
%ADD21C,0.400000*%
%ADD22C,0.254000*%
G04 APERTURE END LIST*
D10*
D11*
X133096000Y-83820000D03*
D12*
X140716000Y-104140000D03*
X133096000Y-86360000D03*
X140716000Y-101600000D03*
X133096000Y-88900000D03*
X140716000Y-99060000D03*
X133096000Y-91440000D03*
X140716000Y-96520000D03*
X133096000Y-93980000D03*
X140716000Y-93980000D03*
X133096000Y-96520000D03*
X140716000Y-91440000D03*
X133096000Y-99060000D03*
X140716000Y-88900000D03*
X133096000Y-101600000D03*
X140716000Y-86360000D03*
X133096000Y-104140000D03*
X140716000Y-83820000D03*
D13*
X155956000Y-116840000D03*
D12*
X145796000Y-116840000D03*
D13*
X145796000Y-108712000D03*
D12*
X155956000Y-108712000D03*
D13*
X108712000Y-78740000D03*
X108712000Y-81280000D03*
X108712000Y-83820000D03*
X108712000Y-86360000D03*
X108712000Y-88900000D03*
X108712000Y-91440000D03*
X108712000Y-93980000D03*
X108712000Y-96520000D03*
X108712000Y-99060000D03*
X108712000Y-101600000D03*
X108712000Y-104140000D03*
X108712000Y-106680000D03*
X108712000Y-109220000D03*
X108712000Y-111760000D03*
X108712000Y-114300000D03*
X123952000Y-114300000D03*
X123952000Y-111760000D03*
X123952000Y-109220000D03*
X123952000Y-106680000D03*
X123952000Y-104140000D03*
X123952000Y-101600000D03*
X123952000Y-99060000D03*
X123952000Y-96520000D03*
X123952000Y-93980000D03*
X123952000Y-91440000D03*
X123952000Y-88900000D03*
X123952000Y-86360000D03*
X123952000Y-83820000D03*
X123952000Y-81280000D03*
X123952000Y-78740000D03*
D11*
X133096000Y-109220000D03*
D12*
X140716000Y-116840000D03*
X133096000Y-111760000D03*
X140716000Y-114300000D03*
X133096000Y-114300000D03*
X140716000Y-111760000D03*
X133096000Y-116840000D03*
X140716000Y-109220000D03*
D13*
X177800000Y-78740000D03*
X177800000Y-81280000D03*
X177800000Y-83820000D03*
X177800000Y-86360000D03*
X177800000Y-88900000D03*
X177800000Y-91440000D03*
X177800000Y-93980000D03*
X177800000Y-96520000D03*
X177800000Y-99060000D03*
X177800000Y-101600000D03*
X177800000Y-104140000D03*
X177800000Y-106680000D03*
X177800000Y-109220000D03*
X177800000Y-111760000D03*
X177800000Y-114300000D03*
X193040000Y-114300000D03*
X193040000Y-111760000D03*
X193040000Y-109220000D03*
X193040000Y-106680000D03*
X193040000Y-104140000D03*
X193040000Y-101600000D03*
X193040000Y-99060000D03*
X193040000Y-96520000D03*
X193040000Y-93980000D03*
X193040000Y-91440000D03*
X193040000Y-88900000D03*
X193040000Y-86360000D03*
X193040000Y-83820000D03*
X193040000Y-81280000D03*
X193040000Y-78740000D03*
D11*
X161036000Y-83820000D03*
D12*
X168656000Y-104140000D03*
X161036000Y-86360000D03*
X168656000Y-101600000D03*
X161036000Y-88900000D03*
X168656000Y-99060000D03*
X161036000Y-91440000D03*
X168656000Y-96520000D03*
X161036000Y-93980000D03*
X168656000Y-93980000D03*
X161036000Y-96520000D03*
X168656000Y-91440000D03*
X161036000Y-99060000D03*
X168656000Y-88900000D03*
X161036000Y-101600000D03*
X168656000Y-86360000D03*
X161036000Y-104140000D03*
X168656000Y-83820000D03*
D11*
X161036000Y-109220000D03*
D12*
X168656000Y-116840000D03*
X161036000Y-111760000D03*
X168656000Y-114300000D03*
X161036000Y-114300000D03*
X168656000Y-111760000D03*
X161036000Y-116840000D03*
X168656000Y-109220000D03*
D14*
X133096000Y-71628000D03*
D15*
X130556000Y-71628000D03*
D14*
X133096000Y-78232000D03*
D15*
X130556000Y-78232000D03*
D14*
X143256000Y-71628000D03*
D15*
X140716000Y-71628000D03*
D14*
X143256000Y-78232000D03*
D15*
X140716000Y-78232000D03*
D14*
X168656000Y-78232000D03*
D15*
X171196000Y-78232000D03*
D14*
X168656000Y-71628000D03*
D15*
X171196000Y-71628000D03*
D14*
X158496000Y-78232000D03*
D15*
X161036000Y-78232000D03*
D14*
X158496000Y-71628000D03*
D15*
X161036000Y-71628000D03*
D16*
X149606000Y-72136000D03*
D17*
X152146000Y-72136000D03*
D18*
X145796000Y-94996000D03*
X145796000Y-99996000D03*
X155956000Y-94996000D03*
X155956000Y-99996000D03*
D13*
X145288000Y-90424000D03*
X147788000Y-90424000D03*
X145288000Y-104648000D03*
X147788000Y-104648000D03*
X156464000Y-90424000D03*
X153964000Y-90424000D03*
X156464000Y-104648000D03*
X153964000Y-104648000D03*
X154686000Y-81534000D03*
X147066000Y-81534000D03*
X147066000Y-86614000D03*
X154686000Y-86614000D03*
X116078000Y-85852000D03*
D12*
X116078000Y-78232000D03*
D13*
X119380000Y-85852000D03*
D12*
X119380000Y-78232000D03*
D13*
X111760000Y-69342000D03*
D12*
X119380000Y-69342000D03*
D13*
X111760000Y-73660000D03*
D12*
X119380000Y-73660000D03*
D13*
X182372000Y-85852000D03*
D12*
X182372000Y-78232000D03*
D13*
X185674000Y-85852000D03*
D12*
X185674000Y-78232000D03*
D13*
X189738000Y-73660000D03*
D12*
X182118000Y-73660000D03*
D13*
X189738000Y-69342000D03*
D12*
X182118000Y-69342000D03*
D13*
X145796000Y-112776000D03*
D12*
X155956000Y-112776000D03*
D19*
X147066000Y-86614000D02*
X149606000Y-86614000D01*
D20*
X152146000Y-72136000D02*
X152146000Y-69469000D01*
D21*
X147066000Y-86614000D02*
X147788000Y-87336000D01*
X147788000Y-87336000D02*
X147788000Y-90424000D01*
X123952000Y-81280000D02*
X127000000Y-81280000D01*
X127381000Y-80899000D02*
X127000000Y-81280000D01*
X146050000Y-80010000D02*
X145161000Y-80899000D01*
X148463000Y-78740000D02*
X147320000Y-78740000D01*
X147320000Y-78740000D02*
X146050000Y-80010000D01*
X148463000Y-78740000D02*
X149606000Y-78740000D01*
X145161000Y-80899000D02*
X134366000Y-80899000D01*
X134366000Y-80899000D02*
X127381000Y-80899000D01*
X149606000Y-78740000D02*
X152146000Y-76200000D01*
D20*
X152146000Y-76200000D02*
X152146000Y-72136000D01*
D21*
X147066000Y-86614000D02*
X149606000Y-84074000D01*
X149606000Y-84074000D02*
X149606000Y-78740000D01*
X153964000Y-104648000D02*
X155234000Y-105918000D01*
X159258000Y-105918000D02*
X161036000Y-104140000D01*
X155234000Y-105918000D02*
X159258000Y-105918000D01*
X163322000Y-80518000D02*
X163195000Y-80645000D01*
X163195000Y-80645000D02*
X155829000Y-80645000D01*
X155829000Y-80645000D02*
X155321000Y-80137000D01*
X153289000Y-82804000D02*
X153289000Y-80899000D01*
X153289000Y-80899000D02*
X154051000Y-80137000D01*
X154051000Y-80137000D02*
X155321000Y-80137000D01*
D19*
X154686000Y-84201000D02*
X154686000Y-86614000D01*
D21*
X154686000Y-84201000D02*
X153670000Y-83185000D01*
X153670000Y-83185000D02*
X153289000Y-82804000D01*
X193040000Y-81280000D02*
X191262000Y-79502000D01*
X191262000Y-69723000D02*
X191262000Y-73406000D01*
X189103000Y-67945000D02*
X190373000Y-67945000D01*
X190373000Y-67945000D02*
X191262000Y-68834000D01*
X191262000Y-68834000D02*
X191262000Y-69723000D01*
X187579000Y-78994000D02*
X187579000Y-69469000D01*
X183896000Y-78994000D02*
X184658000Y-79756000D01*
X184658000Y-79756000D02*
X186817000Y-79756000D01*
X186817000Y-79756000D02*
X187579000Y-78994000D01*
X178562000Y-76708000D02*
X167132000Y-76708000D01*
X183896000Y-77597000D02*
X183007000Y-76708000D01*
X183007000Y-76708000D02*
X178562000Y-76708000D01*
X183896000Y-78740000D02*
X183896000Y-77597000D01*
X167132000Y-76708000D02*
X165354000Y-78486000D01*
X183896000Y-78740000D02*
X183896000Y-78994000D01*
X187579000Y-69469000D02*
X187960000Y-69088000D01*
X187960000Y-69088000D02*
X189103000Y-67945000D01*
X191262000Y-73406000D02*
X191262000Y-79502000D01*
X165354000Y-78486000D02*
X163322000Y-80518000D01*
X145796000Y-116840000D02*
X149860000Y-112776000D01*
X149860000Y-112776000D02*
X155956000Y-112776000D01*
X146812000Y-109982000D02*
X149352000Y-107442000D01*
X143256000Y-109093000D02*
X141859000Y-110490000D01*
X141859000Y-110490000D02*
X139700000Y-110490000D01*
X139700000Y-110490000D02*
X138938000Y-111252000D01*
X138938000Y-111252000D02*
X138938000Y-112268000D01*
X138938000Y-112268000D02*
X139700000Y-113030000D01*
X139700000Y-113030000D02*
X141859000Y-113030000D01*
X141859000Y-113030000D02*
X144653000Y-110236000D01*
X144653000Y-110236000D02*
X146558000Y-110236000D01*
X146558000Y-110236000D02*
X146812000Y-109982000D01*
X143256000Y-107950000D02*
X143256000Y-109093000D01*
X159258000Y-111760000D02*
X161036000Y-111760000D01*
X158496000Y-110998000D02*
X159258000Y-111760000D01*
X158496000Y-109220000D02*
X158496000Y-110998000D01*
X156718000Y-107442000D02*
X158496000Y-109220000D01*
X149352000Y-107442000D02*
X156718000Y-107442000D01*
X143764000Y-107442000D02*
X144526000Y-107442000D01*
X143256000Y-107950000D02*
X143764000Y-107442000D01*
X144994000Y-107442000D02*
X147788000Y-104648000D01*
X144526000Y-107442000D02*
X144994000Y-107442000D01*
X136842500Y-108394500D02*
X137795000Y-107442000D01*
X142748000Y-107442000D02*
X143256000Y-107950000D01*
X137795000Y-107442000D02*
X142748000Y-107442000D01*
X133096000Y-104140000D02*
X133096000Y-104648000D01*
X133096000Y-104648000D02*
X136842500Y-108394500D01*
X136842500Y-108394500D02*
X136906000Y-108458000D01*
X136906000Y-108458000D02*
X136906000Y-111252000D01*
X136906000Y-111252000D02*
X136398000Y-111760000D01*
X133096000Y-111760000D02*
X136398000Y-111760000D01*
X145796000Y-116840000D02*
X144418002Y-118217998D01*
X136906000Y-112268000D02*
X136398000Y-111760000D01*
X136906000Y-114173000D02*
X136906000Y-112268000D01*
X138176000Y-115443000D02*
X136906000Y-114173000D01*
X138176000Y-116713000D02*
X138176000Y-115443000D01*
X139680998Y-118217998D02*
X138176000Y-116713000D01*
X144418002Y-118217998D02*
X139680998Y-118217998D01*
X147788000Y-104648000D02*
X153964000Y-104648000D01*
X147788000Y-90424000D02*
X147788000Y-104648000D01*
X147788000Y-90424000D02*
X153964000Y-90424000D01*
X170053000Y-112522000D02*
X170053000Y-110617000D01*
X169418000Y-115570000D02*
X170053000Y-114935000D01*
X170053000Y-114935000D02*
X170053000Y-112522000D01*
X158115000Y-116840000D02*
X159385000Y-115570000D01*
X159385000Y-115570000D02*
X162560000Y-115570000D01*
X155956000Y-116840000D02*
X158115000Y-116840000D01*
X162560000Y-115570000D02*
X169418000Y-115570000D01*
X170053000Y-110617000D02*
X168656000Y-109220000D01*
X162814000Y-110490000D02*
X164719000Y-110490000D01*
X147828000Y-106680000D02*
X157734000Y-106680000D01*
X157734000Y-106680000D02*
X159258000Y-108204000D01*
X159258000Y-108204000D02*
X159258000Y-109855000D01*
X159258000Y-109855000D02*
X159893000Y-110490000D01*
X159893000Y-110490000D02*
X162814000Y-110490000D01*
X145796000Y-108712000D02*
X147828000Y-106680000D01*
X165989000Y-111760000D02*
X168656000Y-111760000D01*
X164719000Y-110490000D02*
X165989000Y-111760000D01*
X140716000Y-111760000D02*
X141859000Y-111760000D01*
X144907000Y-108712000D02*
X145796000Y-108712000D01*
X141859000Y-111760000D02*
X144907000Y-108712000D01*
X155956000Y-108712000D02*
X155956000Y-109728000D01*
X165989000Y-114300000D02*
X168656000Y-114300000D01*
X164719000Y-113030000D02*
X165989000Y-114300000D01*
X159258000Y-113030000D02*
X164719000Y-113030000D01*
X155956000Y-109728000D02*
X159258000Y-113030000D01*
X140716000Y-114300000D02*
X141986000Y-114300000D01*
X153416000Y-108712000D02*
X155956000Y-108712000D01*
X150876000Y-111252000D02*
X153416000Y-108712000D01*
X145034000Y-111252000D02*
X150876000Y-111252000D01*
X141986000Y-114300000D02*
X145034000Y-111252000D01*
D19*
X147066000Y-81534000D02*
X147066000Y-83820000D01*
D21*
X140716000Y-86360000D02*
X142240000Y-86360000D01*
X142240000Y-86360000D02*
X147066000Y-81534000D01*
X125222000Y-87376000D02*
X130175000Y-82423000D01*
X130175000Y-82423000D02*
X136779000Y-82423000D01*
X136779000Y-82423000D02*
X140716000Y-86360000D01*
X124968000Y-87630000D02*
X116078000Y-87630000D01*
X109982000Y-101600000D02*
X111252000Y-100330000D01*
X111252000Y-100330000D02*
X111252000Y-92456000D01*
X111252000Y-92456000D02*
X116078000Y-87630000D01*
X108712000Y-101600000D02*
X109982000Y-101600000D01*
X125222000Y-87376000D02*
X124968000Y-87630000D01*
X125984000Y-90170000D02*
X119634000Y-90170000D01*
X131064000Y-85090000D02*
X125984000Y-90170000D01*
X140716000Y-88900000D02*
X138938000Y-88900000D01*
X135128000Y-85090000D02*
X132207000Y-85090000D01*
X138938000Y-88900000D02*
X135128000Y-85090000D01*
X132207000Y-85090000D02*
X131064000Y-85090000D01*
X112903000Y-105029000D02*
X108712000Y-109220000D01*
X112903000Y-96901000D02*
X112903000Y-105029000D01*
X119634000Y-90170000D02*
X112903000Y-96901000D01*
X107315000Y-115443000D02*
X107569000Y-115697000D01*
X106426000Y-114554000D02*
X107315000Y-115443000D01*
X107950000Y-69723000D02*
X106426000Y-71247000D01*
X112903000Y-67183000D02*
X110490000Y-67183000D01*
X110490000Y-67183000D02*
X107950000Y-69723000D01*
X116840000Y-71120000D02*
X113538000Y-67818000D01*
X129540000Y-70104000D02*
X131572000Y-70104000D01*
X133096000Y-71628000D02*
X131572000Y-70104000D01*
X128524000Y-71120000D02*
X128143000Y-71501000D01*
X117221000Y-71501000D02*
X116840000Y-71120000D01*
X128143000Y-71501000D02*
X117221000Y-71501000D01*
X128524000Y-71120000D02*
X129540000Y-70104000D01*
X113538000Y-67818000D02*
X113284000Y-67564000D01*
X113284000Y-67564000D02*
X112903000Y-67183000D01*
X106426000Y-71247000D02*
X106426000Y-107061000D01*
X106426000Y-107061000D02*
X106426000Y-114554000D01*
X111760000Y-114427000D02*
X111760000Y-111760000D01*
X110490000Y-115697000D02*
X111760000Y-114427000D01*
X107569000Y-115697000D02*
X110490000Y-115697000D01*
X126238000Y-95250000D02*
X125984000Y-95250000D01*
X131318000Y-90170000D02*
X126238000Y-95250000D01*
X118491000Y-98933000D02*
X122174000Y-95250000D01*
X122174000Y-95250000D02*
X125984000Y-95250000D01*
X111760000Y-111760000D02*
X115316000Y-108204000D01*
X115316000Y-108204000D02*
X118491000Y-105029000D01*
X118491000Y-105029000D02*
X118491000Y-98933000D01*
X135128000Y-90170000D02*
X131318000Y-90170000D01*
X138938000Y-93980000D02*
X140716000Y-93980000D01*
X138938000Y-93980000D02*
X135128000Y-90170000D01*
X108712000Y-111760000D02*
X111760000Y-111760000D01*
X125476000Y-92710000D02*
X125984000Y-92710000D01*
X140716000Y-91440000D02*
X138938000Y-91440000D01*
X135128000Y-87630000D02*
X131699000Y-87630000D01*
X138938000Y-91440000D02*
X135128000Y-87630000D01*
X125349000Y-92710000D02*
X125476000Y-92710000D01*
X121285000Y-92710000D02*
X125349000Y-92710000D01*
X121158000Y-92837000D02*
X114935000Y-99060000D01*
X114935000Y-99060000D02*
X114935000Y-106553000D01*
X114935000Y-106553000D02*
X110998000Y-110490000D01*
X110998000Y-110490000D02*
X107950000Y-110490000D01*
X121158000Y-92837000D02*
X121285000Y-92710000D01*
X131064000Y-87630000D02*
X131699000Y-87630000D01*
X125984000Y-92710000D02*
X131064000Y-87630000D01*
X107188000Y-72009000D02*
X107188000Y-71501000D01*
X107188000Y-72009000D02*
X107188000Y-109728000D01*
X107950000Y-110490000D02*
X107188000Y-109728000D01*
X113538000Y-68834000D02*
X112649000Y-67945000D01*
X117602000Y-79502000D02*
X116967000Y-80137000D01*
X116967000Y-80137000D02*
X115189000Y-80137000D01*
X115189000Y-80137000D02*
X113538000Y-78486000D01*
X113538000Y-78486000D02*
X113538000Y-68834000D01*
X130937000Y-76073000D02*
X133096000Y-78232000D01*
X117602000Y-77470000D02*
X117602000Y-78994000D01*
X118999000Y-76073000D02*
X117602000Y-77470000D01*
X130937000Y-76073000D02*
X118999000Y-76073000D01*
X117602000Y-78994000D02*
X117602000Y-79502000D01*
X110744000Y-67945000D02*
X112649000Y-67945000D01*
X107188000Y-71501000D02*
X110744000Y-67945000D01*
X107188000Y-113538000D02*
X107950000Y-114300000D01*
X107950000Y-110490000D02*
X107886500Y-110553500D01*
X107886500Y-110553500D02*
X107188000Y-111252000D01*
X107188000Y-111252000D02*
X107188000Y-112776000D01*
X107188000Y-112776000D02*
X107188000Y-113538000D01*
X107950000Y-114300000D02*
X108712000Y-114300000D01*
X131191000Y-92710000D02*
X126365000Y-97536000D01*
X137414000Y-94996000D02*
X135128000Y-92710000D01*
X138938000Y-96520000D02*
X137414000Y-94996000D01*
X140716000Y-96520000D02*
X138938000Y-96520000D01*
X135128000Y-92710000D02*
X132080000Y-92710000D01*
X131191000Y-92710000D02*
X132080000Y-92710000D01*
X126365000Y-111887000D02*
X123952000Y-114300000D01*
X126365000Y-97536000D02*
X126365000Y-111887000D01*
X119380000Y-85852000D02*
X123444000Y-85852000D01*
X123444000Y-85852000D02*
X123952000Y-86360000D01*
X116078000Y-85852000D02*
X119380000Y-85852000D01*
X111760000Y-73660000D02*
X111760000Y-84074000D01*
X113538000Y-85852000D02*
X116078000Y-85852000D01*
X111760000Y-84074000D02*
X113538000Y-85852000D01*
X111760000Y-69342000D02*
X111760000Y-73660000D01*
X126365000Y-80010000D02*
X144526000Y-80010000D01*
X144526000Y-80010000D02*
X144907000Y-79629000D01*
X119380000Y-83058000D02*
X119380000Y-85852000D01*
X126365000Y-80010000D02*
X122428000Y-80010000D01*
X149606000Y-74930000D02*
X144907000Y-79629000D01*
D20*
X149606000Y-72136000D02*
X149606000Y-74930000D01*
D21*
X119380000Y-83058000D02*
X122428000Y-80010000D01*
X189738000Y-69342000D02*
X189738000Y-73660000D01*
X176784000Y-67564000D02*
X151511000Y-67564000D01*
X190881000Y-66421000D02*
X188595000Y-66421000D01*
X192786000Y-70866000D02*
X192786000Y-69088000D01*
X192786000Y-69088000D02*
X192786000Y-68326000D01*
X192786000Y-68326000D02*
X190881000Y-66421000D01*
X195453000Y-75819000D02*
X195453000Y-115443000D01*
X171577000Y-117221000D02*
X173990000Y-119634000D01*
X194945000Y-75311000D02*
X195453000Y-75819000D01*
X192786000Y-73152000D02*
X194945000Y-75311000D01*
X191262000Y-119634000D02*
X173990000Y-119634000D01*
X195453000Y-115443000D02*
X191262000Y-119634000D01*
X192786000Y-73152000D02*
X192786000Y-70866000D01*
X188595000Y-66421000D02*
X187452000Y-67564000D01*
X176911000Y-67564000D02*
X187452000Y-67564000D01*
X176784000Y-67564000D02*
X176911000Y-67564000D01*
D20*
X149606000Y-69469000D02*
X149606000Y-72136000D01*
D21*
X151511000Y-67564000D02*
X149606000Y-69469000D01*
X169672000Y-90170000D02*
X170434000Y-90932000D01*
X167386000Y-95250000D02*
X166751000Y-94615000D01*
X166751000Y-94615000D02*
X166751000Y-93345000D01*
X166751000Y-93345000D02*
X167386000Y-92710000D01*
X167386000Y-92710000D02*
X169672000Y-92710000D01*
X183007000Y-111633000D02*
X183007000Y-97536000D01*
X173863000Y-101600000D02*
X173863000Y-109728000D01*
X175387000Y-113030000D02*
X173863000Y-111506000D01*
X173863000Y-111506000D02*
X173863000Y-109728000D01*
X181610000Y-113030000D02*
X175387000Y-113030000D01*
X173863000Y-98933000D02*
X173863000Y-101600000D01*
X170180000Y-95250000D02*
X172974000Y-98044000D01*
X170180000Y-95250000D02*
X169418000Y-95250000D01*
X172974000Y-98044000D02*
X173228000Y-98298000D01*
X173228000Y-98298000D02*
X173863000Y-98933000D01*
X181610000Y-113030000D02*
X183007000Y-111633000D01*
X185674000Y-86614000D02*
X183007000Y-89281000D01*
X183007000Y-97536000D02*
X183007000Y-89281000D01*
X169418000Y-95250000D02*
X167386000Y-95250000D01*
X164084000Y-91694000D02*
X165608000Y-90170000D01*
X165608000Y-90170000D02*
X166878000Y-90170000D01*
X170180000Y-102870000D02*
X167386000Y-102870000D01*
X171577000Y-109728000D02*
X171577000Y-104267000D01*
X171577000Y-115824000D02*
X171577000Y-117221000D01*
X171577000Y-115824000D02*
X171577000Y-109728000D01*
X171577000Y-104267000D02*
X170180000Y-102870000D01*
X164084000Y-101219000D02*
X164084000Y-98171000D01*
X165735000Y-102870000D02*
X164084000Y-101219000D01*
X167386000Y-102870000D02*
X165735000Y-102870000D01*
X164084000Y-98171000D02*
X164084000Y-91694000D01*
X169672000Y-90170000D02*
X166878000Y-90170000D01*
X170434000Y-91948000D02*
X169672000Y-92710000D01*
X170434000Y-90932000D02*
X170434000Y-91948000D01*
X168656000Y-83820000D02*
X175006000Y-83820000D01*
X181610000Y-85090000D02*
X182372000Y-85852000D01*
X176276000Y-85090000D02*
X181610000Y-85090000D01*
X175006000Y-83820000D02*
X176276000Y-85090000D01*
X185674000Y-85852000D02*
X185674000Y-83566000D01*
X189738000Y-79502000D02*
X189738000Y-73660000D01*
X185674000Y-83566000D02*
X189738000Y-79502000D01*
X185674000Y-85852000D02*
X186182000Y-86360000D01*
X186182000Y-86360000D02*
X193040000Y-86360000D01*
X182372000Y-85852000D02*
X185674000Y-85852000D01*
X185674000Y-86614000D02*
X185674000Y-85852000D01*
X169545000Y-118872000D02*
X169926000Y-118872000D01*
X152654000Y-118872000D02*
X151384000Y-117602000D01*
X169545000Y-118872000D02*
X152654000Y-118872000D01*
X169926000Y-118872000D02*
X171577000Y-117221000D01*
X151384000Y-117602000D02*
X151384000Y-116713000D01*
X151384000Y-116713000D02*
X153797000Y-114300000D01*
X153797000Y-114300000D02*
X161036000Y-114300000D01*
X137668000Y-118872000D02*
X150114000Y-118872000D01*
X150114000Y-118872000D02*
X151384000Y-117602000D01*
X133096000Y-114300000D02*
X135128000Y-114300000D01*
X136525000Y-117729000D02*
X137668000Y-118872000D01*
X136525000Y-115697000D02*
X136525000Y-117729000D01*
X135128000Y-114300000D02*
X136525000Y-115697000D01*
X128016000Y-82296000D02*
X128643002Y-81668998D01*
X126746000Y-83566000D02*
X128016000Y-82296000D01*
X123952000Y-86360000D02*
X126746000Y-83566000D01*
X138564998Y-81668998D02*
X140716000Y-83820000D01*
X128643002Y-81668998D02*
X138564998Y-81668998D01*
X125984000Y-118364000D02*
X108204000Y-118364000D01*
X126873000Y-118364000D02*
X125984000Y-118364000D01*
X132588000Y-118364000D02*
X134366000Y-118364000D01*
X130937000Y-111379000D02*
X130937000Y-114427000D01*
X130937000Y-114427000D02*
X132080000Y-115570000D01*
X132080000Y-115570000D02*
X134366000Y-115570000D01*
X134366000Y-115570000D02*
X135001000Y-116205000D01*
X135001000Y-116205000D02*
X135001000Y-117729000D01*
X135001000Y-117729000D02*
X134366000Y-118364000D01*
X133096000Y-109220000D02*
X130937000Y-111379000D01*
X126873000Y-118364000D02*
X132588000Y-118364000D01*
X104902000Y-115062000D02*
X107315000Y-117475000D01*
X104902000Y-113538000D02*
X104902000Y-107569000D01*
X104902000Y-70739000D02*
X104902000Y-107569000D01*
X117094000Y-67056000D02*
X115951000Y-67056000D01*
X140462000Y-67056000D02*
X143256000Y-69850000D01*
X143256000Y-69850000D02*
X143256000Y-71628000D01*
X117094000Y-67056000D02*
X140462000Y-67056000D01*
X109982000Y-65659000D02*
X105600500Y-70040500D01*
X105600500Y-70040500D02*
X105537000Y-70104000D01*
X114554000Y-65659000D02*
X109982000Y-65659000D01*
X115951000Y-67056000D02*
X114554000Y-65659000D01*
X105537000Y-70104000D02*
X104902000Y-70739000D01*
X104902000Y-113538000D02*
X104902000Y-115062000D01*
X108204000Y-118364000D02*
X107315000Y-117475000D01*
X135382000Y-97790000D02*
X131826000Y-97790000D01*
X143510000Y-99060000D02*
X142240000Y-100330000D01*
X142240000Y-100330000D02*
X138430000Y-100330000D01*
X138430000Y-100330000D02*
X135890000Y-97790000D01*
X135890000Y-97790000D02*
X135382000Y-97790000D01*
X133096000Y-83820000D02*
X135128000Y-83820000D01*
X143510000Y-88519000D02*
X143510000Y-88900000D01*
X142621000Y-87630000D02*
X143510000Y-88519000D01*
X138938000Y-87630000D02*
X142621000Y-87630000D01*
X135128000Y-83820000D02*
X138938000Y-87630000D01*
X143510000Y-88900000D02*
X143510000Y-99060000D01*
X130810000Y-106934000D02*
X133096000Y-109220000D01*
X130810000Y-98806000D02*
X130810000Y-106934000D01*
X131826000Y-97790000D02*
X130810000Y-98806000D01*
X124841000Y-116840000D02*
X128270000Y-116840000D01*
X129540000Y-115570000D02*
X128270000Y-116840000D01*
X105664000Y-112649000D02*
X105664000Y-114808000D01*
X107442000Y-69215000D02*
X105664000Y-70993000D01*
X110236000Y-66421000D02*
X107442000Y-69215000D01*
X113665000Y-66929000D02*
X113157000Y-66421000D01*
X117475000Y-70739000D02*
X113665000Y-66929000D01*
X119507000Y-70739000D02*
X126365000Y-70739000D01*
X127762000Y-69342000D02*
X134366000Y-69342000D01*
X134366000Y-69342000D02*
X143256000Y-78232000D01*
X126365000Y-70739000D02*
X127762000Y-69342000D01*
X119507000Y-70739000D02*
X117475000Y-70739000D01*
X113157000Y-66421000D02*
X110998000Y-66421000D01*
X110998000Y-66421000D02*
X110236000Y-66421000D01*
X105664000Y-70993000D02*
X105664000Y-107950000D01*
X105664000Y-112649000D02*
X105664000Y-107950000D01*
X105664000Y-114808000D02*
X107696000Y-116840000D01*
X124841000Y-116840000D02*
X107696000Y-116840000D01*
X129540000Y-115570000D02*
X130810000Y-116840000D01*
X130810000Y-116840000D02*
X133096000Y-116840000D01*
X129540000Y-115570000D02*
X129540000Y-106807000D01*
X131445000Y-95250000D02*
X129540000Y-97155000D01*
X129540000Y-97155000D02*
X129540000Y-106807000D01*
X142494000Y-94234000D02*
X142494000Y-96901000D01*
X135128000Y-86360000D02*
X138938000Y-90170000D01*
X138938000Y-90170000D02*
X141859000Y-90170000D01*
X141859000Y-90170000D02*
X142494000Y-90805000D01*
X142494000Y-90805000D02*
X142494000Y-94234000D01*
X135128000Y-86360000D02*
X133096000Y-86360000D01*
X138938000Y-97790000D02*
X136398000Y-95250000D01*
X141605000Y-97790000D02*
X138938000Y-97790000D01*
X142494000Y-96901000D02*
X141605000Y-97790000D01*
X136398000Y-95250000D02*
X131445000Y-95250000D01*
X175387000Y-105537000D02*
X175387000Y-93472000D01*
X176530000Y-109220000D02*
X175387000Y-108077000D01*
X175387000Y-108077000D02*
X175387000Y-105537000D01*
X177800000Y-109220000D02*
X176530000Y-109220000D01*
X170815000Y-88900000D02*
X168656000Y-88900000D01*
X175387000Y-93472000D02*
X170815000Y-88900000D01*
X167005000Y-84328000D02*
X167005000Y-79883000D01*
X170942000Y-85090000D02*
X167767000Y-85090000D01*
X167767000Y-85090000D02*
X167005000Y-84328000D01*
X177800000Y-111760000D02*
X180086000Y-111760000D01*
X179832000Y-87630000D02*
X173482000Y-87630000D01*
X181483000Y-89281000D02*
X179832000Y-87630000D01*
X181483000Y-110363000D02*
X181483000Y-89281000D01*
X180086000Y-111760000D02*
X181483000Y-110363000D01*
X173482000Y-87630000D02*
X170942000Y-85090000D01*
X167005000Y-79883000D02*
X168656000Y-78232000D01*
X174625000Y-100457000D02*
X174625000Y-110617000D01*
X174625000Y-98425000D02*
X174625000Y-100457000D01*
X168656000Y-93980000D02*
X170180000Y-93980000D01*
X170180000Y-93980000D02*
X172974000Y-96774000D01*
X172974000Y-96774000D02*
X174625000Y-98425000D01*
X175768000Y-111760000D02*
X177800000Y-111760000D01*
X174625000Y-110617000D02*
X175768000Y-111760000D01*
X194183000Y-113538000D02*
X194437000Y-113792000D01*
X168656000Y-91440000D02*
X166116000Y-91440000D01*
X185293000Y-113030000D02*
X184531000Y-112268000D01*
X194183000Y-113538000D02*
X193675000Y-113030000D01*
X190500000Y-118872000D02*
X194183000Y-115189000D01*
X170180000Y-97790000D02*
X172339000Y-99949000D01*
X174244000Y-118872000D02*
X175514000Y-118872000D01*
X172339000Y-116967000D02*
X174244000Y-118872000D01*
X172339000Y-99949000D02*
X172339000Y-116967000D01*
X175514000Y-118872000D02*
X190500000Y-118872000D01*
X193675000Y-113030000D02*
X188468000Y-113030000D01*
X188468000Y-113030000D02*
X185293000Y-113030000D01*
X166116000Y-97790000D02*
X167132000Y-97790000D01*
X164846000Y-96520000D02*
X166116000Y-97790000D01*
X164846000Y-92710000D02*
X164846000Y-96520000D01*
X166116000Y-91440000D02*
X164846000Y-92710000D01*
X167132000Y-97790000D02*
X170180000Y-97790000D01*
X194437000Y-114935000D02*
X194183000Y-115189000D01*
X194437000Y-113792000D02*
X194437000Y-114935000D01*
X180975000Y-70739000D02*
X177165000Y-70739000D01*
X185420000Y-70612000D02*
X185293000Y-70739000D01*
X185420000Y-70612000D02*
X188849000Y-67183000D01*
X188849000Y-67183000D02*
X190627000Y-67183000D01*
X190627000Y-67183000D02*
X192024000Y-68580000D01*
X192024000Y-68580000D02*
X192024000Y-74168000D01*
X194437000Y-86360000D02*
X194437000Y-76581000D01*
X191516000Y-87630000D02*
X193802000Y-87630000D01*
X193802000Y-87630000D02*
X194437000Y-86995000D01*
X194437000Y-86995000D02*
X194437000Y-86360000D01*
X184531000Y-108839000D02*
X184531000Y-94615000D01*
X184531000Y-112268000D02*
X184531000Y-108839000D01*
X184531000Y-94615000D02*
X187198000Y-91948000D01*
X187198000Y-91948000D02*
X191516000Y-87630000D01*
X194437000Y-76581000D02*
X192024000Y-74168000D01*
X185293000Y-70739000D02*
X181864000Y-70739000D01*
X181864000Y-70739000D02*
X180975000Y-70739000D01*
X170434000Y-69850000D02*
X168656000Y-71628000D01*
X176276000Y-69850000D02*
X170434000Y-69850000D01*
X177165000Y-70739000D02*
X176276000Y-69850000D01*
X177800000Y-114300000D02*
X182499000Y-114300000D01*
X182499000Y-114300000D02*
X184531000Y-112268000D01*
X176022000Y-118110000D02*
X189230000Y-118110000D01*
X170180000Y-96520000D02*
X173101000Y-99441000D01*
X173101000Y-99441000D02*
X173101000Y-116713000D01*
X173101000Y-116713000D02*
X174498000Y-118110000D01*
X168656000Y-96520000D02*
X170180000Y-96520000D01*
X174498000Y-118110000D02*
X176022000Y-118110000D01*
X189230000Y-118110000D02*
X193040000Y-114300000D01*
X153352500Y-78803500D02*
X153924000Y-78232000D01*
X153924000Y-78232000D02*
X158496000Y-78232000D01*
X151765000Y-84582000D02*
X151765000Y-80391000D01*
X151765000Y-87249000D02*
X151765000Y-84582000D01*
X156972000Y-88900000D02*
X153416000Y-88900000D01*
X157099000Y-88900000D02*
X156972000Y-88900000D01*
X159258000Y-86741000D02*
X157988000Y-88011000D01*
X157988000Y-88011000D02*
X157099000Y-88900000D01*
X153416000Y-88900000D02*
X151892000Y-87376000D01*
X151892000Y-87376000D02*
X151765000Y-87249000D01*
X151765000Y-80391000D02*
X153352500Y-78803500D01*
X153352500Y-78803500D02*
X153416000Y-78740000D01*
X161290000Y-87630000D02*
X160147000Y-87630000D01*
X161036000Y-109220000D02*
X162560000Y-107696000D01*
X161290000Y-87630000D02*
X161925000Y-87630000D01*
X162560000Y-88265000D02*
X162560000Y-89789000D01*
X161925000Y-87630000D02*
X162560000Y-88265000D01*
X162560000Y-89789000D02*
X162560000Y-107696000D01*
X159258000Y-85344000D02*
X160782000Y-83820000D01*
X159258000Y-86741000D02*
X159258000Y-85344000D01*
X160147000Y-87630000D02*
X159258000Y-86741000D01*
X160782000Y-83820000D02*
X161036000Y-83820000D01*
X169418000Y-73406000D02*
X160274000Y-73406000D01*
X160274000Y-73406000D02*
X158496000Y-71628000D01*
X179324000Y-72898000D02*
X178816000Y-73406000D01*
X183642000Y-74422000D02*
X183642000Y-72771000D01*
X183642000Y-72771000D02*
X183134000Y-72263000D01*
X183134000Y-72263000D02*
X179959000Y-72263000D01*
X179959000Y-72263000D02*
X179324000Y-72898000D01*
X171577000Y-75565000D02*
X182499000Y-75565000D01*
X162687000Y-79756000D02*
X166878000Y-75565000D01*
X166878000Y-75565000D02*
X171577000Y-75565000D01*
X155829000Y-79375000D02*
X156210000Y-79756000D01*
X152527000Y-86995000D02*
X152654000Y-87122000D01*
X152527000Y-80645000D02*
X152527000Y-82550000D01*
X153797000Y-79375000D02*
X152527000Y-80645000D01*
X155829000Y-79375000D02*
X153797000Y-79375000D01*
X162814000Y-86360000D02*
X163449000Y-85725000D01*
X153543000Y-88011000D02*
X152654000Y-87122000D01*
X155575000Y-88011000D02*
X153543000Y-88011000D01*
X157480000Y-86106000D02*
X155575000Y-88011000D01*
X157480000Y-84201000D02*
X157480000Y-86106000D01*
X159131000Y-82550000D02*
X157480000Y-84201000D01*
X162687000Y-82550000D02*
X159131000Y-82550000D01*
X163449000Y-83312000D02*
X162687000Y-82550000D01*
X163449000Y-84582000D02*
X163449000Y-83312000D01*
X163449000Y-85725000D02*
X163449000Y-84582000D01*
X152527000Y-82550000D02*
X152527000Y-86995000D01*
X156210000Y-79756000D02*
X162052000Y-79756000D01*
X162052000Y-79756000D02*
X162687000Y-79756000D01*
X182499000Y-75565000D02*
X183134000Y-74930000D01*
X183134000Y-74930000D02*
X183642000Y-74422000D01*
X178816000Y-73406000D02*
X169418000Y-73406000D01*
X169418000Y-73406000D02*
X169291000Y-73406000D01*
X161036000Y-86360000D02*
X162814000Y-86360000D01*
X163322000Y-86868000D02*
X162814000Y-86360000D01*
X166370000Y-105664000D02*
X167386000Y-106680000D01*
X163322000Y-86868000D02*
X163322000Y-102616000D01*
X163322000Y-102616000D02*
X166370000Y-105664000D01*
X170815000Y-113919000D02*
X170815000Y-108458000D01*
X169672000Y-118110000D02*
X170815000Y-116967000D01*
X170815000Y-116967000D02*
X170815000Y-113919000D01*
X164846000Y-116840000D02*
X161036000Y-116840000D01*
X164846000Y-116840000D02*
X166116000Y-118110000D01*
X166116000Y-118110000D02*
X169672000Y-118110000D01*
X169037000Y-106680000D02*
X167386000Y-106680000D01*
X170815000Y-108458000D02*
X169037000Y-106680000D01*
X145288000Y-90424000D02*
X145796000Y-90932000D01*
X145796000Y-90932000D02*
X145796000Y-94996000D01*
X133096000Y-99060000D02*
X134620000Y-99060000D01*
X145796000Y-97790000D02*
X145796000Y-94996000D01*
X143764000Y-99822000D02*
X145796000Y-97790000D01*
X143764000Y-101219000D02*
X143764000Y-99822000D01*
X142113000Y-102870000D02*
X143764000Y-101219000D01*
X138430000Y-102870000D02*
X142113000Y-102870000D01*
X134620000Y-99060000D02*
X138430000Y-102870000D01*
X145796000Y-99996000D02*
X145288000Y-100504000D01*
X145288000Y-100504000D02*
X145288000Y-104648000D01*
X133096000Y-101600000D02*
X137541000Y-106045000D01*
X143891000Y-106045000D02*
X145288000Y-104648000D01*
X137541000Y-106045000D02*
X143891000Y-106045000D01*
X156464000Y-90424000D02*
X155956000Y-90932000D01*
X155956000Y-90932000D02*
X155956000Y-94996000D01*
X155956000Y-94996000D02*
X160020000Y-99060000D01*
X160020000Y-99060000D02*
X161036000Y-99060000D01*
X155956000Y-99996000D02*
X157560000Y-101600000D01*
X157560000Y-101600000D02*
X161036000Y-101600000D01*
X155956000Y-99996000D02*
X155956000Y-104140000D01*
X155956000Y-104140000D02*
X156464000Y-104648000D01*
X130556000Y-71628000D02*
X129921000Y-72263000D01*
X129921000Y-72263000D02*
X118364000Y-72263000D01*
X116078000Y-74549000D02*
X116078000Y-78232000D01*
X118364000Y-72263000D02*
X116078000Y-74549000D01*
X119380000Y-78232000D02*
X120396000Y-77216000D01*
X129540000Y-77216000D02*
X130556000Y-78232000D01*
X120396000Y-77216000D02*
X129540000Y-77216000D01*
X119380000Y-69342000D02*
X120269000Y-68453000D01*
X137541000Y-68453000D02*
X140716000Y-71628000D01*
X120269000Y-68453000D02*
X137541000Y-68453000D01*
X119380000Y-73660000D02*
X120650000Y-74930000D01*
X137414000Y-74930000D02*
X140716000Y-78232000D01*
X120650000Y-74930000D02*
X137414000Y-74930000D01*
X171196000Y-78232000D02*
X171958000Y-77470000D01*
X181610000Y-77470000D02*
X182372000Y-78232000D01*
X171958000Y-77470000D02*
X181610000Y-77470000D01*
X171323000Y-71501000D02*
X175006000Y-71501000D01*
X185674000Y-73279000D02*
X185674000Y-78232000D01*
X183896000Y-71501000D02*
X181483000Y-71501000D01*
X185674000Y-73279000D02*
X183896000Y-71501000D01*
X175006000Y-71501000D02*
X181483000Y-71501000D01*
X171323000Y-71501000D02*
X171196000Y-71628000D01*
X176784000Y-74422000D02*
X181356000Y-74422000D01*
X164846000Y-74422000D02*
X176784000Y-74422000D01*
X161036000Y-78232000D02*
X164846000Y-74422000D01*
X181356000Y-74422000D02*
X182118000Y-73660000D01*
X182118000Y-69342000D02*
X178308000Y-69342000D01*
X163703000Y-68961000D02*
X161036000Y-71628000D01*
X177927000Y-68961000D02*
X175006000Y-68961000D01*
X178308000Y-69342000D02*
X177927000Y-68961000D01*
X175006000Y-68961000D02*
X163703000Y-68961000D01*
X140716000Y-109220000D02*
X139319000Y-109220000D01*
X143002000Y-115570000D02*
X145796000Y-112776000D01*
X139573000Y-115570000D02*
X143002000Y-115570000D01*
X137922000Y-113919000D02*
X139573000Y-115570000D01*
X137922000Y-110617000D02*
X137922000Y-113919000D01*
X139319000Y-109220000D02*
X137922000Y-110617000D01*
D19*
X154686000Y-81534000D02*
X156210000Y-83058000D01*
D21*
X164338000Y-81534000D02*
X165227000Y-82423000D01*
X159258000Y-81534000D02*
X164338000Y-81534000D01*
X154686000Y-81534000D02*
X159258000Y-81534000D01*
X166751000Y-86360000D02*
X168656000Y-86360000D01*
X165227000Y-84836000D02*
X166751000Y-86360000D01*
X165227000Y-82423000D02*
X165227000Y-84836000D01*
X180086000Y-93726000D02*
X180086000Y-100584000D01*
X170180000Y-86360000D02*
X176530000Y-92710000D01*
X176530000Y-92710000D02*
X179070000Y-92710000D01*
X179070000Y-92710000D02*
X180086000Y-93726000D01*
X168656000Y-86360000D02*
X170180000Y-86360000D01*
X179070000Y-101600000D02*
X177800000Y-101600000D01*
X180086000Y-100584000D02*
X179070000Y-101600000D01*
D22*
G36*
X109627253Y-64802563D02*
X109326512Y-65003512D01*
X104246512Y-70083512D01*
X104045564Y-70384252D01*
X103975000Y-70739000D01*
X103975000Y-115062000D01*
X104045564Y-115416748D01*
X104211064Y-115664436D01*
X104246512Y-115717488D01*
X107548512Y-119019488D01*
X107849253Y-119220437D01*
X108204000Y-119291000D01*
X134366000Y-119291000D01*
X134720748Y-119220436D01*
X135021488Y-119019488D01*
X135656488Y-118384488D01*
X135763000Y-118225082D01*
X135834064Y-118331436D01*
X135869512Y-118384488D01*
X137012512Y-119527488D01*
X137313252Y-119728436D01*
X137668000Y-119799000D01*
X150114000Y-119799000D01*
X150468748Y-119728436D01*
X150769488Y-119527488D01*
X151384000Y-118912976D01*
X151998512Y-119527488D01*
X152299252Y-119728436D01*
X152654000Y-119799000D01*
X169926000Y-119799000D01*
X170280748Y-119728436D01*
X170581488Y-119527488D01*
X171577000Y-118531976D01*
X173334512Y-120289488D01*
X173635252Y-120490436D01*
X173990000Y-120561000D01*
X191262000Y-120561000D01*
X191616748Y-120490436D01*
X191917488Y-120289488D01*
X196108488Y-116098488D01*
X196147568Y-116040000D01*
X196309436Y-115797748D01*
X196380000Y-115443000D01*
X196380000Y-75819000D01*
X196309436Y-75464252D01*
X196108488Y-75163512D01*
X193713000Y-72768024D01*
X193713000Y-68326000D01*
X193700319Y-68262248D01*
X193642437Y-67971253D01*
X193441488Y-67670512D01*
X191536488Y-65765512D01*
X191377081Y-65659000D01*
X191235748Y-65564564D01*
X190881000Y-65494000D01*
X188595000Y-65494000D01*
X188240252Y-65564564D01*
X188098919Y-65659000D01*
X187939512Y-65765512D01*
X187068024Y-66637000D01*
X151511000Y-66637000D01*
X151156253Y-66707563D01*
X150855512Y-66908512D01*
X149953001Y-67811023D01*
X149606000Y-67742000D01*
X148945106Y-67873460D01*
X148384827Y-68247827D01*
X148010460Y-68808106D01*
X147879000Y-69469000D01*
X147879000Y-70765670D01*
X147864758Y-70836000D01*
X147864758Y-73436000D01*
X147879000Y-73511690D01*
X147879000Y-74930000D01*
X147948023Y-75277001D01*
X144897242Y-78327782D01*
X144897242Y-77332000D01*
X144846549Y-77062590D01*
X144687328Y-76815154D01*
X144444385Y-76649157D01*
X144156000Y-76590758D01*
X142925734Y-76590758D01*
X135714976Y-69380000D01*
X137157024Y-69380000D01*
X139089275Y-71312251D01*
X139088718Y-71950211D01*
X139335892Y-72548418D01*
X139793175Y-73006499D01*
X140390950Y-73254717D01*
X141038211Y-73255282D01*
X141636418Y-73008108D01*
X141736648Y-72908053D01*
X141824672Y-73044846D01*
X142067615Y-73210843D01*
X142356000Y-73269242D01*
X144156000Y-73269242D01*
X144425410Y-73218549D01*
X144672846Y-73059328D01*
X144838843Y-72816385D01*
X144897242Y-72528000D01*
X144897242Y-70728000D01*
X144846549Y-70458590D01*
X144687328Y-70211154D01*
X144444385Y-70045157D01*
X144183000Y-69992226D01*
X144183000Y-69850000D01*
X144165297Y-69761000D01*
X144112437Y-69495253D01*
X143911488Y-69194512D01*
X141117488Y-66400512D01*
X140988744Y-66314488D01*
X140816748Y-66199564D01*
X140462000Y-66129000D01*
X116334976Y-66129000D01*
X115209488Y-65003512D01*
X114908748Y-64802564D01*
X114905913Y-64802000D01*
X192667800Y-64802000D01*
X198198000Y-70332199D01*
X198198000Y-115667801D01*
X192667800Y-121198000D01*
X108332199Y-121198000D01*
X102802000Y-115667800D01*
X102802000Y-70332200D01*
X108332199Y-64802000D01*
X109630083Y-64802000D01*
X109627253Y-64802563D01*
X109627253Y-64802563D01*
G37*
X109627253Y-64802563D02*
X109326512Y-65003512D01*
X104246512Y-70083512D01*
X104045564Y-70384252D01*
X103975000Y-70739000D01*
X103975000Y-115062000D01*
X104045564Y-115416748D01*
X104211064Y-115664436D01*
X104246512Y-115717488D01*
X107548512Y-119019488D01*
X107849253Y-119220437D01*
X108204000Y-119291000D01*
X134366000Y-119291000D01*
X134720748Y-119220436D01*
X135021488Y-119019488D01*
X135656488Y-118384488D01*
X135763000Y-118225082D01*
X135834064Y-118331436D01*
X135869512Y-118384488D01*
X137012512Y-119527488D01*
X137313252Y-119728436D01*
X137668000Y-119799000D01*
X150114000Y-119799000D01*
X150468748Y-119728436D01*
X150769488Y-119527488D01*
X151384000Y-118912976D01*
X151998512Y-119527488D01*
X152299252Y-119728436D01*
X152654000Y-119799000D01*
X169926000Y-119799000D01*
X170280748Y-119728436D01*
X170581488Y-119527488D01*
X171577000Y-118531976D01*
X173334512Y-120289488D01*
X173635252Y-120490436D01*
X173990000Y-120561000D01*
X191262000Y-120561000D01*
X191616748Y-120490436D01*
X191917488Y-120289488D01*
X196108488Y-116098488D01*
X196147568Y-116040000D01*
X196309436Y-115797748D01*
X196380000Y-115443000D01*
X196380000Y-75819000D01*
X196309436Y-75464252D01*
X196108488Y-75163512D01*
X193713000Y-72768024D01*
X193713000Y-68326000D01*
X193700319Y-68262248D01*
X193642437Y-67971253D01*
X193441488Y-67670512D01*
X191536488Y-65765512D01*
X191377081Y-65659000D01*
X191235748Y-65564564D01*
X190881000Y-65494000D01*
X188595000Y-65494000D01*
X188240252Y-65564564D01*
X188098919Y-65659000D01*
X187939512Y-65765512D01*
X187068024Y-66637000D01*
X151511000Y-66637000D01*
X151156253Y-66707563D01*
X150855512Y-66908512D01*
X149953001Y-67811023D01*
X149606000Y-67742000D01*
X148945106Y-67873460D01*
X148384827Y-68247827D01*
X148010460Y-68808106D01*
X147879000Y-69469000D01*
X147879000Y-70765670D01*
X147864758Y-70836000D01*
X147864758Y-73436000D01*
X147879000Y-73511690D01*
X147879000Y-74930000D01*
X147948023Y-75277001D01*
X144897242Y-78327782D01*
X144897242Y-77332000D01*
X144846549Y-77062590D01*
X144687328Y-76815154D01*
X144444385Y-76649157D01*
X144156000Y-76590758D01*
X142925734Y-76590758D01*
X135714976Y-69380000D01*
X137157024Y-69380000D01*
X139089275Y-71312251D01*
X139088718Y-71950211D01*
X139335892Y-72548418D01*
X139793175Y-73006499D01*
X140390950Y-73254717D01*
X141038211Y-73255282D01*
X141636418Y-73008108D01*
X141736648Y-72908053D01*
X141824672Y-73044846D01*
X142067615Y-73210843D01*
X142356000Y-73269242D01*
X144156000Y-73269242D01*
X144425410Y-73218549D01*
X144672846Y-73059328D01*
X144838843Y-72816385D01*
X144897242Y-72528000D01*
X144897242Y-70728000D01*
X144846549Y-70458590D01*
X144687328Y-70211154D01*
X144444385Y-70045157D01*
X144183000Y-69992226D01*
X144183000Y-69850000D01*
X144165297Y-69761000D01*
X144112437Y-69495253D01*
X143911488Y-69194512D01*
X141117488Y-66400512D01*
X140988744Y-66314488D01*
X140816748Y-66199564D01*
X140462000Y-66129000D01*
X116334976Y-66129000D01*
X115209488Y-65003512D01*
X114908748Y-64802564D01*
X114905913Y-64802000D01*
X192667800Y-64802000D01*
X198198000Y-70332199D01*
X198198000Y-115667801D01*
X192667800Y-121198000D01*
X108332199Y-121198000D01*
X102802000Y-115667800D01*
X102802000Y-70332200D01*
X108332199Y-64802000D01*
X109630083Y-64802000D01*
X109627253Y-64802563D01*
G36*
X157731024Y-115913000D02*
X157188239Y-115913000D01*
X156822106Y-115546227D01*
X156261072Y-115313265D01*
X155653593Y-115312735D01*
X155092154Y-115544717D01*
X154662227Y-115973894D01*
X154429265Y-116534928D01*
X154428735Y-117142407D01*
X154660717Y-117703846D01*
X154901450Y-117945000D01*
X153037976Y-117945000D01*
X152311000Y-117218024D01*
X152311000Y-117096976D01*
X154180976Y-115227000D01*
X158417024Y-115227000D01*
X157731024Y-115913000D01*
X157731024Y-115913000D01*
G37*
X157731024Y-115913000D02*
X157188239Y-115913000D01*
X156822106Y-115546227D01*
X156261072Y-115313265D01*
X155653593Y-115312735D01*
X155092154Y-115544717D01*
X154662227Y-115973894D01*
X154429265Y-116534928D01*
X154428735Y-117142407D01*
X154660717Y-117703846D01*
X154901450Y-117945000D01*
X153037976Y-117945000D01*
X152311000Y-117218024D01*
X152311000Y-117096976D01*
X154180976Y-115227000D01*
X158417024Y-115227000D01*
X157731024Y-115913000D01*
G36*
X150728512Y-116057512D02*
X150527564Y-116358252D01*
X150457000Y-116713000D01*
X150457000Y-117218024D01*
X149730024Y-117945000D01*
X146867882Y-117945000D01*
X146905668Y-117919752D01*
X147236680Y-117424358D01*
X147352916Y-116840000D01*
X147312112Y-116634864D01*
X150243976Y-113703000D01*
X153083024Y-113703000D01*
X150728512Y-116057512D01*
X150728512Y-116057512D01*
G37*
X150728512Y-116057512D02*
X150527564Y-116358252D01*
X150457000Y-116713000D01*
X150457000Y-117218024D01*
X149730024Y-117945000D01*
X146867882Y-117945000D01*
X146905668Y-117919752D01*
X147236680Y-117424358D01*
X147352916Y-116840000D01*
X147312112Y-116634864D01*
X150243976Y-113703000D01*
X153083024Y-113703000D01*
X150728512Y-116057512D01*
G36*
X137468735Y-117290998D02*
X137520512Y-117368488D01*
X138097024Y-117945000D01*
X138051976Y-117945000D01*
X137452000Y-117345024D01*
X137452000Y-117265953D01*
X137468735Y-117290998D01*
X137468735Y-117290998D01*
G37*
X137468735Y-117290998D02*
X137520512Y-117368488D01*
X138097024Y-117945000D01*
X138051976Y-117945000D01*
X137452000Y-117345024D01*
X137452000Y-117265953D01*
X137468735Y-117290998D01*
G36*
X164640024Y-117945000D02*
X162107882Y-117945000D01*
X162145668Y-117919752D01*
X162247734Y-117767000D01*
X164462024Y-117767000D01*
X164640024Y-117945000D01*
X164640024Y-117945000D01*
G37*
X164640024Y-117945000D02*
X162107882Y-117945000D01*
X162145668Y-117919752D01*
X162247734Y-117767000D01*
X164462024Y-117767000D01*
X164640024Y-117945000D01*
G36*
X159479084Y-116840000D02*
X159595320Y-117424358D01*
X159926332Y-117919752D01*
X159964118Y-117945000D01*
X157010462Y-117945000D01*
X157188773Y-117767000D01*
X158115000Y-117767000D01*
X158469748Y-117696436D01*
X158770488Y-117495488D01*
X159492271Y-116773705D01*
X159479084Y-116840000D01*
X159479084Y-116840000D01*
G37*
X159479084Y-116840000D02*
X159595320Y-117424358D01*
X159926332Y-117919752D01*
X159964118Y-117945000D01*
X157010462Y-117945000D01*
X157188773Y-117767000D01*
X158115000Y-117767000D01*
X158469748Y-117696436D01*
X158770488Y-117495488D01*
X159492271Y-116773705D01*
X159479084Y-116840000D01*
G36*
X130096024Y-117437000D02*
X128983976Y-117437000D01*
X129540000Y-116880976D01*
X130096024Y-117437000D01*
X130096024Y-117437000D01*
G37*
X130096024Y-117437000D02*
X128983976Y-117437000D01*
X129540000Y-116880976D01*
X130096024Y-117437000D01*
G36*
X145981147Y-115343877D02*
X145825916Y-115313000D01*
X145766084Y-115313000D01*
X145181726Y-115429236D01*
X144686332Y-115760248D01*
X144355320Y-116255642D01*
X144239084Y-116840000D01*
X144279888Y-117045136D01*
X144034026Y-117290998D01*
X142183207Y-117290998D01*
X142272916Y-116840000D01*
X142204689Y-116497000D01*
X143002000Y-116497000D01*
X143356748Y-116426436D01*
X143657488Y-116225488D01*
X145580163Y-114302813D01*
X146098407Y-114303265D01*
X146659846Y-114071283D01*
X147089773Y-113642106D01*
X147322735Y-113081072D01*
X147323265Y-112473593D01*
X147201542Y-112179000D01*
X149146024Y-112179000D01*
X145981147Y-115343877D01*
X145981147Y-115343877D01*
G37*
X145981147Y-115343877D02*
X145825916Y-115313000D01*
X145766084Y-115313000D01*
X145181726Y-115429236D01*
X144686332Y-115760248D01*
X144355320Y-116255642D01*
X144239084Y-116840000D01*
X144279888Y-117045136D01*
X144034026Y-117290998D01*
X142183207Y-117290998D01*
X142272916Y-116840000D01*
X142204689Y-116497000D01*
X143002000Y-116497000D01*
X143356748Y-116426436D01*
X143657488Y-116225488D01*
X145580163Y-114302813D01*
X146098407Y-114303265D01*
X146659846Y-114071283D01*
X147089773Y-113642106D01*
X147322735Y-113081072D01*
X147323265Y-112473593D01*
X147201542Y-112179000D01*
X149146024Y-112179000D01*
X145981147Y-115343877D01*
G36*
X167099084Y-116840000D02*
X167167311Y-117183000D01*
X166499976Y-117183000D01*
X165813976Y-116497000D01*
X167167311Y-116497000D01*
X167099084Y-116840000D01*
X167099084Y-116840000D01*
G37*
X167099084Y-116840000D02*
X167167311Y-117183000D01*
X166499976Y-117183000D01*
X165813976Y-116497000D01*
X167167311Y-116497000D01*
X167099084Y-116840000D01*
G36*
X174731512Y-113685488D02*
X175032252Y-113886436D01*
X175387000Y-113957000D01*
X176289014Y-113957000D01*
X176273265Y-113994928D01*
X176272735Y-114602407D01*
X176504717Y-115163846D01*
X176933894Y-115593773D01*
X177494928Y-115826735D01*
X178102407Y-115827265D01*
X178663846Y-115595283D01*
X179032773Y-115227000D01*
X182499000Y-115227000D01*
X182853748Y-115156436D01*
X183154488Y-114955488D01*
X184531000Y-113578976D01*
X184637512Y-113685488D01*
X184938253Y-113886437D01*
X185293000Y-113957000D01*
X191529014Y-113957000D01*
X191513265Y-113994928D01*
X191512810Y-114516214D01*
X188846024Y-117183000D01*
X174881976Y-117183000D01*
X174028000Y-116329024D01*
X174028000Y-112981976D01*
X174731512Y-113685488D01*
X174731512Y-113685488D01*
G37*
X174731512Y-113685488D02*
X175032252Y-113886436D01*
X175387000Y-113957000D01*
X176289014Y-113957000D01*
X176273265Y-113994928D01*
X176272735Y-114602407D01*
X176504717Y-115163846D01*
X176933894Y-115593773D01*
X177494928Y-115826735D01*
X178102407Y-115827265D01*
X178663846Y-115595283D01*
X179032773Y-115227000D01*
X182499000Y-115227000D01*
X182853748Y-115156436D01*
X183154488Y-114955488D01*
X184531000Y-113578976D01*
X184637512Y-113685488D01*
X184938253Y-113886437D01*
X185293000Y-113957000D01*
X191529014Y-113957000D01*
X191513265Y-113994928D01*
X191512810Y-114516214D01*
X188846024Y-117183000D01*
X174881976Y-117183000D01*
X174028000Y-116329024D01*
X174028000Y-112981976D01*
X174731512Y-113685488D01*
G36*
X139218253Y-116426437D02*
X139240468Y-116430856D01*
X139234555Y-116460579D01*
X139164489Y-116390513D01*
X139218253Y-116426437D01*
X139218253Y-116426437D01*
G37*
X139218253Y-116426437D02*
X139240468Y-116430856D01*
X139234555Y-116460579D01*
X139164489Y-116390513D01*
X139218253Y-116426437D01*
G36*
X131539084Y-93980000D02*
X131607311Y-94323000D01*
X131445000Y-94323000D01*
X131090253Y-94393563D01*
X130789512Y-94594512D01*
X128884512Y-96499512D01*
X128683564Y-96800252D01*
X128613000Y-97155000D01*
X128613000Y-115186024D01*
X127886024Y-115913000D01*
X111584976Y-115913000D01*
X112415488Y-115082488D01*
X112450936Y-115029436D01*
X112616436Y-114781748D01*
X112687000Y-114427000D01*
X112687000Y-112143976D01*
X119146488Y-105684488D01*
X119185568Y-105626000D01*
X119347436Y-105383748D01*
X119418000Y-105029000D01*
X119418000Y-99316976D01*
X122425182Y-96309794D01*
X122424735Y-96822407D01*
X122656717Y-97383846D01*
X123062494Y-97790332D01*
X122658227Y-98193894D01*
X122425265Y-98754928D01*
X122424735Y-99362407D01*
X122656717Y-99923846D01*
X123062494Y-100330332D01*
X122658227Y-100733894D01*
X122425265Y-101294928D01*
X122424735Y-101902407D01*
X122656717Y-102463846D01*
X123062494Y-102870332D01*
X122658227Y-103273894D01*
X122425265Y-103834928D01*
X122424735Y-104442407D01*
X122656717Y-105003846D01*
X123062494Y-105410332D01*
X122658227Y-105813894D01*
X122425265Y-106374928D01*
X122424735Y-106982407D01*
X122656717Y-107543846D01*
X123062494Y-107950332D01*
X122658227Y-108353894D01*
X122425265Y-108914928D01*
X122424735Y-109522407D01*
X122656717Y-110083846D01*
X123062494Y-110490332D01*
X122658227Y-110893894D01*
X122425265Y-111454928D01*
X122424735Y-112062407D01*
X122656717Y-112623846D01*
X123062494Y-113030332D01*
X122658227Y-113433894D01*
X122425265Y-113994928D01*
X122424735Y-114602407D01*
X122656717Y-115163846D01*
X123085894Y-115593773D01*
X123646928Y-115826735D01*
X124254407Y-115827265D01*
X124815846Y-115595283D01*
X125245773Y-115166106D01*
X125478735Y-114605072D01*
X125479190Y-114083786D01*
X127020488Y-112542488D01*
X127068303Y-112470928D01*
X127221436Y-112241748D01*
X127292000Y-111887000D01*
X127292000Y-97919976D01*
X131574976Y-93637000D01*
X131607311Y-93637000D01*
X131539084Y-93980000D01*
X131539084Y-93980000D01*
G37*
X131539084Y-93980000D02*
X131607311Y-94323000D01*
X131445000Y-94323000D01*
X131090253Y-94393563D01*
X130789512Y-94594512D01*
X128884512Y-96499512D01*
X128683564Y-96800252D01*
X128613000Y-97155000D01*
X128613000Y-115186024D01*
X127886024Y-115913000D01*
X111584976Y-115913000D01*
X112415488Y-115082488D01*
X112450936Y-115029436D01*
X112616436Y-114781748D01*
X112687000Y-114427000D01*
X112687000Y-112143976D01*
X119146488Y-105684488D01*
X119185568Y-105626000D01*
X119347436Y-105383748D01*
X119418000Y-105029000D01*
X119418000Y-99316976D01*
X122425182Y-96309794D01*
X122424735Y-96822407D01*
X122656717Y-97383846D01*
X123062494Y-97790332D01*
X122658227Y-98193894D01*
X122425265Y-98754928D01*
X122424735Y-99362407D01*
X122656717Y-99923846D01*
X123062494Y-100330332D01*
X122658227Y-100733894D01*
X122425265Y-101294928D01*
X122424735Y-101902407D01*
X122656717Y-102463846D01*
X123062494Y-102870332D01*
X122658227Y-103273894D01*
X122425265Y-103834928D01*
X122424735Y-104442407D01*
X122656717Y-105003846D01*
X123062494Y-105410332D01*
X122658227Y-105813894D01*
X122425265Y-106374928D01*
X122424735Y-106982407D01*
X122656717Y-107543846D01*
X123062494Y-107950332D01*
X122658227Y-108353894D01*
X122425265Y-108914928D01*
X122424735Y-109522407D01*
X122656717Y-110083846D01*
X123062494Y-110490332D01*
X122658227Y-110893894D01*
X122425265Y-111454928D01*
X122424735Y-112062407D01*
X122656717Y-112623846D01*
X123062494Y-113030332D01*
X122658227Y-113433894D01*
X122425265Y-113994928D01*
X122424735Y-114602407D01*
X122656717Y-115163846D01*
X123085894Y-115593773D01*
X123646928Y-115826735D01*
X124254407Y-115827265D01*
X124815846Y-115595283D01*
X125245773Y-115166106D01*
X125478735Y-114605072D01*
X125479190Y-114083786D01*
X127020488Y-112542488D01*
X127068303Y-112470928D01*
X127221436Y-112241748D01*
X127292000Y-111887000D01*
X127292000Y-97919976D01*
X131574976Y-93637000D01*
X131607311Y-93637000D01*
X131539084Y-93980000D01*
G36*
X110833000Y-114043024D02*
X110215858Y-114660166D01*
X110238735Y-114605072D01*
X110239265Y-113997593D01*
X110007283Y-113436154D01*
X109601506Y-113029668D01*
X109944773Y-112687000D01*
X110833000Y-112687000D01*
X110833000Y-114043024D01*
X110833000Y-114043024D01*
G37*
X110833000Y-114043024D02*
X110215858Y-114660166D01*
X110238735Y-114605072D01*
X110239265Y-113997593D01*
X110007283Y-113436154D01*
X109601506Y-113029668D01*
X109944773Y-112687000D01*
X110833000Y-112687000D01*
X110833000Y-114043024D01*
G36*
X165021024Y-114643000D02*
X162524689Y-114643000D01*
X162592916Y-114300000D01*
X162524689Y-113957000D01*
X164335024Y-113957000D01*
X165021024Y-114643000D01*
X165021024Y-114643000D01*
G37*
X165021024Y-114643000D02*
X162524689Y-114643000D01*
X162592916Y-114300000D01*
X162524689Y-113957000D01*
X164335024Y-113957000D01*
X165021024Y-114643000D01*
G36*
X139044512Y-113685488D02*
X139253537Y-113825154D01*
X139234555Y-113920579D01*
X138849000Y-113535024D01*
X138849000Y-113489976D01*
X139044512Y-113685488D01*
X139044512Y-113685488D01*
G37*
X139044512Y-113685488D02*
X139253537Y-113825154D01*
X139234555Y-113920579D01*
X138849000Y-113535024D01*
X138849000Y-113489976D01*
X139044512Y-113685488D01*
G36*
X135979000Y-113840024D02*
X135783488Y-113644512D01*
X135757279Y-113627000D01*
X135482748Y-113443564D01*
X135128000Y-113373000D01*
X134307734Y-113373000D01*
X134205668Y-113220248D01*
X133920942Y-113030000D01*
X134205668Y-112839752D01*
X134307734Y-112687000D01*
X135979000Y-112687000D01*
X135979000Y-113840024D01*
X135979000Y-113840024D01*
G37*
X135979000Y-113840024D02*
X135783488Y-113644512D01*
X135757279Y-113627000D01*
X135482748Y-113443564D01*
X135128000Y-113373000D01*
X134307734Y-113373000D01*
X134205668Y-113220248D01*
X133920942Y-113030000D01*
X134205668Y-112839752D01*
X134307734Y-112687000D01*
X135979000Y-112687000D01*
X135979000Y-113840024D01*
G36*
X131986332Y-112839752D02*
X132271058Y-113030000D01*
X131986332Y-113220248D01*
X131864000Y-113403331D01*
X131864000Y-112656669D01*
X131986332Y-112839752D01*
X131986332Y-112839752D01*
G37*
X131986332Y-112839752D02*
X132271058Y-113030000D01*
X131986332Y-113220248D01*
X131864000Y-113403331D01*
X131864000Y-112656669D01*
X131986332Y-112839752D01*
G36*
X158290024Y-113373000D02*
X157388233Y-113373000D01*
X157396680Y-113360358D01*
X157512916Y-112776000D01*
X157468195Y-112551171D01*
X158290024Y-113373000D01*
X158290024Y-113373000D01*
G37*
X158290024Y-113373000D02*
X157388233Y-113373000D01*
X157396680Y-113360358D01*
X157512916Y-112776000D01*
X157468195Y-112551171D01*
X158290024Y-113373000D01*
G36*
X165634252Y-112616436D02*
X165989000Y-112687000D01*
X167444266Y-112687000D01*
X167546332Y-112839752D01*
X167831058Y-113030000D01*
X167546332Y-113220248D01*
X167444266Y-113373000D01*
X166372976Y-113373000D01*
X165580488Y-112580512D01*
X165634252Y-112616436D01*
X165634252Y-112616436D01*
G37*
X165634252Y-112616436D02*
X165989000Y-112687000D01*
X167444266Y-112687000D01*
X167546332Y-112839752D01*
X167831058Y-113030000D01*
X167546332Y-113220248D01*
X167444266Y-113373000D01*
X166372976Y-113373000D01*
X165580488Y-112580512D01*
X165634252Y-112616436D01*
G36*
X194526000Y-112570024D02*
X194406628Y-112450652D01*
X194526000Y-112163173D01*
X194526000Y-112570024D01*
X194526000Y-112570024D01*
G37*
X194526000Y-112570024D02*
X194406628Y-112450652D01*
X194526000Y-112163173D01*
X194526000Y-112570024D01*
G36*
X165127512Y-112209488D02*
X165073748Y-112173564D01*
X164719000Y-112103000D01*
X162524689Y-112103000D01*
X162592916Y-111760000D01*
X162524689Y-111417000D01*
X164335024Y-111417000D01*
X165127512Y-112209488D01*
X165127512Y-112209488D01*
G37*
X165127512Y-112209488D02*
X165073748Y-112173564D01*
X164719000Y-112103000D01*
X162524689Y-112103000D01*
X162592916Y-111760000D01*
X162524689Y-111417000D01*
X164335024Y-111417000D01*
X165127512Y-112209488D01*
G36*
X191512735Y-89202407D02*
X191744717Y-89763846D01*
X192150494Y-90170332D01*
X191746227Y-90573894D01*
X191513265Y-91134928D01*
X191512735Y-91742407D01*
X191744717Y-92303846D01*
X192150494Y-92710332D01*
X191746227Y-93113894D01*
X191513265Y-93674928D01*
X191512735Y-94282407D01*
X191744717Y-94843846D01*
X192150494Y-95250332D01*
X191746227Y-95653894D01*
X191513265Y-96214928D01*
X191512735Y-96822407D01*
X191744717Y-97383846D01*
X192150494Y-97790332D01*
X191746227Y-98193894D01*
X191513265Y-98754928D01*
X191512735Y-99362407D01*
X191744717Y-99923846D01*
X192150494Y-100330332D01*
X191746227Y-100733894D01*
X191513265Y-101294928D01*
X191512735Y-101902407D01*
X191744717Y-102463846D01*
X192150494Y-102870332D01*
X191746227Y-103273894D01*
X191513265Y-103834928D01*
X191512735Y-104442407D01*
X191744717Y-105003846D01*
X192150494Y-105410332D01*
X191746227Y-105813894D01*
X191513265Y-106374928D01*
X191512735Y-106982407D01*
X191744717Y-107543846D01*
X192150494Y-107950332D01*
X191746227Y-108353894D01*
X191513265Y-108914928D01*
X191512735Y-109522407D01*
X191744717Y-110083846D01*
X192150494Y-110490332D01*
X191746227Y-110893894D01*
X191513265Y-111454928D01*
X191512735Y-112062407D01*
X191529508Y-112103000D01*
X185676976Y-112103000D01*
X185458000Y-111884024D01*
X185458000Y-94998976D01*
X191512960Y-88944016D01*
X191512735Y-89202407D01*
X191512735Y-89202407D01*
G37*
X191512735Y-89202407D02*
X191744717Y-89763846D01*
X192150494Y-90170332D01*
X191746227Y-90573894D01*
X191513265Y-91134928D01*
X191512735Y-91742407D01*
X191744717Y-92303846D01*
X192150494Y-92710332D01*
X191746227Y-93113894D01*
X191513265Y-93674928D01*
X191512735Y-94282407D01*
X191744717Y-94843846D01*
X192150494Y-95250332D01*
X191746227Y-95653894D01*
X191513265Y-96214928D01*
X191512735Y-96822407D01*
X191744717Y-97383846D01*
X192150494Y-97790332D01*
X191746227Y-98193894D01*
X191513265Y-98754928D01*
X191512735Y-99362407D01*
X191744717Y-99923846D01*
X192150494Y-100330332D01*
X191746227Y-100733894D01*
X191513265Y-101294928D01*
X191512735Y-101902407D01*
X191744717Y-102463846D01*
X192150494Y-102870332D01*
X191746227Y-103273894D01*
X191513265Y-103834928D01*
X191512735Y-104442407D01*
X191744717Y-105003846D01*
X192150494Y-105410332D01*
X191746227Y-105813894D01*
X191513265Y-106374928D01*
X191512735Y-106982407D01*
X191744717Y-107543846D01*
X192150494Y-107950332D01*
X191746227Y-108353894D01*
X191513265Y-108914928D01*
X191512735Y-109522407D01*
X191744717Y-110083846D01*
X192150494Y-110490332D01*
X191746227Y-110893894D01*
X191513265Y-111454928D01*
X191512735Y-112062407D01*
X191529508Y-112103000D01*
X185676976Y-112103000D01*
X185458000Y-111884024D01*
X185458000Y-94998976D01*
X191512960Y-88944016D01*
X191512735Y-89202407D01*
G36*
X182080000Y-111249024D02*
X181226024Y-112103000D01*
X181053976Y-112103000D01*
X182080000Y-111076976D01*
X182080000Y-111249024D01*
X182080000Y-111249024D01*
G37*
X182080000Y-111249024D02*
X181226024Y-112103000D01*
X181053976Y-112103000D01*
X182080000Y-111076976D01*
X182080000Y-111249024D01*
G36*
X154846332Y-109791752D02*
X155071625Y-109942288D01*
X155099564Y-110082748D01*
X155250330Y-110308385D01*
X155300512Y-110383488D01*
X156210745Y-111293721D01*
X155985916Y-111249000D01*
X155926084Y-111249000D01*
X155341726Y-111365236D01*
X154846332Y-111696248D01*
X154744266Y-111849000D01*
X151589976Y-111849000D01*
X153799976Y-109639000D01*
X154744266Y-109639000D01*
X154846332Y-109791752D01*
X154846332Y-109791752D01*
G37*
X154846332Y-109791752D02*
X155071625Y-109942288D01*
X155099564Y-110082748D01*
X155250330Y-110308385D01*
X155300512Y-110383488D01*
X156210745Y-111293721D01*
X155985916Y-111249000D01*
X155926084Y-111249000D01*
X155341726Y-111365236D01*
X154846332Y-111696248D01*
X154744266Y-111849000D01*
X151589976Y-111849000D01*
X153799976Y-109639000D01*
X154744266Y-109639000D01*
X154846332Y-109791752D01*
G36*
X125438000Y-111357724D02*
X125247283Y-110896154D01*
X124841506Y-110489668D01*
X125245773Y-110086106D01*
X125438000Y-109623173D01*
X125438000Y-111357724D01*
X125438000Y-111357724D01*
G37*
X125438000Y-111357724D02*
X125247283Y-110896154D01*
X124841506Y-110489668D01*
X125245773Y-110086106D01*
X125438000Y-109623173D01*
X125438000Y-111357724D01*
G36*
X194526000Y-111357724D02*
X194335283Y-110896154D01*
X193929506Y-110489668D01*
X194333773Y-110086106D01*
X194526000Y-109623173D01*
X194526000Y-111357724D01*
X194526000Y-111357724D01*
G37*
X194526000Y-111357724D02*
X194335283Y-110896154D01*
X193929506Y-110489668D01*
X194333773Y-110086106D01*
X194526000Y-109623173D01*
X194526000Y-111357724D01*
G36*
X131986332Y-105219752D02*
X132481726Y-105550764D01*
X132738954Y-105601930D01*
X135979000Y-108841976D01*
X135979000Y-110833000D01*
X134307734Y-110833000D01*
X134207722Y-110683322D01*
X134412846Y-110551328D01*
X134578843Y-110308385D01*
X134637242Y-110020000D01*
X134637242Y-108420000D01*
X134586549Y-108150590D01*
X134427328Y-107903154D01*
X134184385Y-107737157D01*
X133896000Y-107678758D01*
X132865734Y-107678758D01*
X131737000Y-106550024D01*
X131737000Y-104846601D01*
X131986332Y-105219752D01*
X131986332Y-105219752D01*
G37*
X131986332Y-105219752D02*
X132481726Y-105550764D01*
X132738954Y-105601930D01*
X135979000Y-108841976D01*
X135979000Y-110833000D01*
X134307734Y-110833000D01*
X134207722Y-110683322D01*
X134412846Y-110551328D01*
X134578843Y-110308385D01*
X134637242Y-110020000D01*
X134637242Y-108420000D01*
X134586549Y-108150590D01*
X134427328Y-107903154D01*
X134184385Y-107737157D01*
X133896000Y-107678758D01*
X132865734Y-107678758D01*
X131737000Y-106550024D01*
X131737000Y-104846601D01*
X131986332Y-105219752D01*
G36*
X175874512Y-109875488D02*
X176175252Y-110076436D01*
X176530000Y-110147000D01*
X176567761Y-110147000D01*
X176910494Y-110490332D01*
X176567227Y-110833000D01*
X176151976Y-110833000D01*
X175552000Y-110233024D01*
X175552000Y-109552976D01*
X175874512Y-109875488D01*
X175874512Y-109875488D01*
G37*
X175874512Y-109875488D02*
X176175252Y-110076436D01*
X176530000Y-110147000D01*
X176567761Y-110147000D01*
X176910494Y-110490332D01*
X176567227Y-110833000D01*
X176151976Y-110833000D01*
X175552000Y-110233024D01*
X175552000Y-109552976D01*
X175874512Y-109875488D01*
G36*
X180556000Y-109979024D02*
X179702024Y-110833000D01*
X179032239Y-110833000D01*
X178689506Y-110489668D01*
X179093773Y-110086106D01*
X179326735Y-109525072D01*
X179327265Y-108917593D01*
X179095283Y-108356154D01*
X178689506Y-107949668D01*
X179093773Y-107546106D01*
X179326735Y-106985072D01*
X179327265Y-106377593D01*
X179095283Y-105816154D01*
X178689506Y-105409668D01*
X179093773Y-105006106D01*
X179326735Y-104445072D01*
X179327265Y-103837593D01*
X179095283Y-103276154D01*
X178689506Y-102869668D01*
X179032773Y-102527000D01*
X179070000Y-102527000D01*
X179424748Y-102456436D01*
X179725488Y-102255488D01*
X180556000Y-101424976D01*
X180556000Y-109979024D01*
X180556000Y-109979024D01*
G37*
X180556000Y-109979024D02*
X179702024Y-110833000D01*
X179032239Y-110833000D01*
X178689506Y-110489668D01*
X179093773Y-110086106D01*
X179326735Y-109525072D01*
X179327265Y-108917593D01*
X179095283Y-108356154D01*
X178689506Y-107949668D01*
X179093773Y-107546106D01*
X179326735Y-106985072D01*
X179327265Y-106377593D01*
X179095283Y-105816154D01*
X178689506Y-105409668D01*
X179093773Y-105006106D01*
X179326735Y-104445072D01*
X179327265Y-103837593D01*
X179095283Y-103276154D01*
X178689506Y-102869668D01*
X179032773Y-102527000D01*
X179070000Y-102527000D01*
X179424748Y-102456436D01*
X179725488Y-102255488D01*
X180556000Y-101424976D01*
X180556000Y-109979024D01*
G36*
X166730512Y-107335488D02*
X167031252Y-107536436D01*
X167386000Y-107607000D01*
X168653024Y-107607000D01*
X168752211Y-107706187D01*
X168685916Y-107693000D01*
X168626084Y-107693000D01*
X168041726Y-107809236D01*
X167546332Y-108140248D01*
X167215320Y-108635642D01*
X167099084Y-109220000D01*
X167215320Y-109804358D01*
X167546332Y-110299752D01*
X167831058Y-110490000D01*
X167546332Y-110680248D01*
X167444266Y-110833000D01*
X166372976Y-110833000D01*
X165374488Y-109834512D01*
X165310493Y-109791752D01*
X165073748Y-109633564D01*
X164719000Y-109563000D01*
X162577242Y-109563000D01*
X162577242Y-108989734D01*
X163215488Y-108351488D01*
X163254568Y-108293000D01*
X163416436Y-108050748D01*
X163487000Y-107696000D01*
X163487000Y-104091976D01*
X166730512Y-107335488D01*
X166730512Y-107335488D01*
G37*
X166730512Y-107335488D02*
X167031252Y-107536436D01*
X167386000Y-107607000D01*
X168653024Y-107607000D01*
X168752211Y-107706187D01*
X168685916Y-107693000D01*
X168626084Y-107693000D01*
X168041726Y-107809236D01*
X167546332Y-108140248D01*
X167215320Y-108635642D01*
X167099084Y-109220000D01*
X167215320Y-109804358D01*
X167546332Y-110299752D01*
X167831058Y-110490000D01*
X167546332Y-110680248D01*
X167444266Y-110833000D01*
X166372976Y-110833000D01*
X165374488Y-109834512D01*
X165310493Y-109791752D01*
X165073748Y-109633564D01*
X164719000Y-109563000D01*
X162577242Y-109563000D01*
X162577242Y-108989734D01*
X163215488Y-108351488D01*
X163254568Y-108293000D01*
X163416436Y-108050748D01*
X163487000Y-107696000D01*
X163487000Y-104091976D01*
X166730512Y-107335488D01*
G36*
X131554758Y-108989734D02*
X131554758Y-109450266D01*
X130467000Y-110538024D01*
X130467000Y-107901976D01*
X131554758Y-108989734D01*
X131554758Y-108989734D01*
G37*
X131554758Y-108989734D02*
X131554758Y-109450266D01*
X130467000Y-110538024D01*
X130467000Y-107901976D01*
X131554758Y-108989734D01*
G36*
X150492024Y-110325000D02*
X147779976Y-110325000D01*
X149735976Y-108369000D01*
X152448024Y-108369000D01*
X150492024Y-110325000D01*
X150492024Y-110325000D01*
G37*
X150492024Y-110325000D02*
X147779976Y-110325000D01*
X149735976Y-108369000D01*
X152448024Y-108369000D01*
X150492024Y-110325000D01*
G36*
X157569000Y-109603976D02*
X157569000Y-110030024D01*
X157171836Y-109632860D01*
X157342487Y-109377463D01*
X157569000Y-109603976D01*
X157569000Y-109603976D01*
G37*
X157569000Y-109603976D02*
X157569000Y-110030024D01*
X157171836Y-109632860D01*
X157342487Y-109377463D01*
X157569000Y-109603976D01*
G36*
X122425265Y-91134928D02*
X122424735Y-91742407D01*
X122441508Y-91783000D01*
X121285000Y-91783000D01*
X120930252Y-91853564D01*
X120740183Y-91980564D01*
X120629512Y-92054512D01*
X114279512Y-98404512D01*
X114078564Y-98705252D01*
X114008000Y-99060000D01*
X114008000Y-106169024D01*
X110614024Y-109563000D01*
X110222986Y-109563000D01*
X110238735Y-109525072D01*
X110239190Y-109003786D01*
X113558488Y-105684488D01*
X113597568Y-105626000D01*
X113759436Y-105383748D01*
X113830000Y-105029000D01*
X113830000Y-97284976D01*
X120017976Y-91097000D01*
X122441014Y-91097000D01*
X122425265Y-91134928D01*
X122425265Y-91134928D01*
G37*
X122425265Y-91134928D02*
X122424735Y-91742407D01*
X122441508Y-91783000D01*
X121285000Y-91783000D01*
X120930252Y-91853564D01*
X120740183Y-91980564D01*
X120629512Y-92054512D01*
X114279512Y-98404512D01*
X114078564Y-98705252D01*
X114008000Y-99060000D01*
X114008000Y-106169024D01*
X110614024Y-109563000D01*
X110222986Y-109563000D01*
X110238735Y-109525072D01*
X110239190Y-109003786D01*
X113558488Y-105684488D01*
X113597568Y-105626000D01*
X113759436Y-105383748D01*
X113830000Y-105029000D01*
X113830000Y-97284976D01*
X120017976Y-91097000D01*
X122441014Y-91097000D01*
X122425265Y-91134928D01*
G36*
X138681585Y-108552436D02*
X138663512Y-108564512D01*
X137833000Y-109395024D01*
X137833000Y-108714976D01*
X138178976Y-108369000D01*
X138956116Y-108369000D01*
X138681585Y-108552436D01*
X138681585Y-108552436D01*
G37*
X138681585Y-108552436D02*
X138663512Y-108564512D01*
X137833000Y-109395024D01*
X137833000Y-108714976D01*
X138178976Y-108369000D01*
X138956116Y-108369000D01*
X138681585Y-108552436D01*
G36*
X142329000Y-108709024D02*
X142197445Y-108840579D01*
X142156680Y-108635642D01*
X141978515Y-108369000D01*
X142329000Y-108369000D01*
X142329000Y-108709024D01*
X142329000Y-108709024D01*
G37*
X142329000Y-108709024D02*
X142197445Y-108840579D01*
X142156680Y-108635642D01*
X141978515Y-108369000D01*
X142329000Y-108369000D01*
X142329000Y-108709024D01*
G36*
X194526000Y-108817724D02*
X194335283Y-108356154D01*
X193929506Y-107949668D01*
X194333773Y-107546106D01*
X194526000Y-107083173D01*
X194526000Y-108817724D01*
X194526000Y-108817724D01*
G37*
X194526000Y-108817724D02*
X194335283Y-108356154D01*
X193929506Y-107949668D01*
X194333773Y-107546106D01*
X194526000Y-107083173D01*
X194526000Y-108817724D01*
G36*
X125438000Y-108817724D02*
X125247283Y-108356154D01*
X124841506Y-107949668D01*
X125245773Y-107546106D01*
X125438000Y-107083173D01*
X125438000Y-108817724D01*
X125438000Y-108817724D01*
G37*
X125438000Y-108817724D02*
X125247283Y-108356154D01*
X124841506Y-107949668D01*
X125245773Y-107546106D01*
X125438000Y-107083173D01*
X125438000Y-108817724D01*
G36*
X176504717Y-107543846D02*
X176910494Y-107950332D01*
X176740753Y-108119777D01*
X176314000Y-107693024D01*
X176314000Y-107082276D01*
X176504717Y-107543846D01*
X176504717Y-107543846D01*
G37*
X176504717Y-107543846D02*
X176910494Y-107950332D01*
X176740753Y-108119777D01*
X176314000Y-107693024D01*
X176314000Y-107082276D01*
X176504717Y-107543846D01*
G36*
X161633000Y-107312024D02*
X161266266Y-107678758D01*
X160236000Y-107678758D01*
X160026816Y-107718119D01*
X159913488Y-107548512D01*
X159209976Y-106845000D01*
X159258000Y-106845000D01*
X159612748Y-106774436D01*
X159913488Y-106573488D01*
X160850853Y-105636123D01*
X161006084Y-105667000D01*
X161065916Y-105667000D01*
X161633000Y-105554200D01*
X161633000Y-107312024D01*
X161633000Y-107312024D01*
G37*
X161633000Y-107312024D02*
X161266266Y-107678758D01*
X160236000Y-107678758D01*
X160026816Y-107718119D01*
X159913488Y-107548512D01*
X159209976Y-106845000D01*
X159258000Y-106845000D01*
X159612748Y-106774436D01*
X159913488Y-106573488D01*
X160850853Y-105636123D01*
X161006084Y-105667000D01*
X161065916Y-105667000D01*
X161633000Y-105554200D01*
X161633000Y-107312024D01*
G36*
X136885512Y-106700488D02*
X137089342Y-106836682D01*
X136842500Y-107083524D01*
X134515313Y-104756337D01*
X134536680Y-104724358D01*
X134598515Y-104413491D01*
X136885512Y-106700488D01*
X136885512Y-106700488D01*
G37*
X136885512Y-106700488D02*
X137089342Y-106836682D01*
X136842500Y-107083524D01*
X134515313Y-104756337D01*
X134536680Y-104724358D01*
X134598515Y-104413491D01*
X136885512Y-106700488D01*
G36*
X167099084Y-104140000D02*
X167215320Y-104724358D01*
X167546332Y-105219752D01*
X168041726Y-105550764D01*
X168626084Y-105667000D01*
X168685916Y-105667000D01*
X169270274Y-105550764D01*
X169765668Y-105219752D01*
X170096680Y-104724358D01*
X170200657Y-104201633D01*
X170650000Y-104650976D01*
X170650000Y-106982024D01*
X169692488Y-106024512D01*
X169666279Y-106007000D01*
X169391748Y-105823564D01*
X169037000Y-105753000D01*
X167769976Y-105753000D01*
X165813976Y-103797000D01*
X167167311Y-103797000D01*
X167099084Y-104140000D01*
X167099084Y-104140000D01*
G37*
X167099084Y-104140000D02*
X167215320Y-104724358D01*
X167546332Y-105219752D01*
X168041726Y-105550764D01*
X168626084Y-105667000D01*
X168685916Y-105667000D01*
X169270274Y-105550764D01*
X169765668Y-105219752D01*
X170096680Y-104724358D01*
X170200657Y-104201633D01*
X170650000Y-104650976D01*
X170650000Y-106982024D01*
X169692488Y-106024512D01*
X169666279Y-106007000D01*
X169391748Y-105823564D01*
X169037000Y-105753000D01*
X167769976Y-105753000D01*
X165813976Y-103797000D01*
X167167311Y-103797000D01*
X167099084Y-104140000D01*
G36*
X111976000Y-104645024D02*
X110239261Y-106381763D01*
X110239265Y-106377593D01*
X110007283Y-105816154D01*
X109601506Y-105409668D01*
X110005773Y-105006106D01*
X110238735Y-104445072D01*
X110239265Y-103837593D01*
X110007283Y-103276154D01*
X109601506Y-102869668D01*
X109944773Y-102527000D01*
X109982000Y-102527000D01*
X110336748Y-102456436D01*
X110637488Y-102255488D01*
X111907488Y-100985488D01*
X111938719Y-100938747D01*
X111976000Y-100882953D01*
X111976000Y-104645024D01*
X111976000Y-104645024D01*
G37*
X111976000Y-104645024D02*
X110239261Y-106381763D01*
X110239265Y-106377593D01*
X110007283Y-105816154D01*
X109601506Y-105409668D01*
X110005773Y-105006106D01*
X110238735Y-104445072D01*
X110239265Y-103837593D01*
X110007283Y-103276154D01*
X109601506Y-102869668D01*
X109944773Y-102527000D01*
X109982000Y-102527000D01*
X110336748Y-102456436D01*
X110637488Y-102255488D01*
X111907488Y-100985488D01*
X111938719Y-100938747D01*
X111976000Y-100882953D01*
X111976000Y-104645024D01*
G36*
X122425265Y-93674928D02*
X122424735Y-94282407D01*
X122441508Y-94323000D01*
X122174000Y-94323000D01*
X121819253Y-94393563D01*
X121518512Y-94594512D01*
X117835512Y-98277512D01*
X117634564Y-98578252D01*
X117564000Y-98933000D01*
X117564000Y-104645024D01*
X115862000Y-106347024D01*
X115862000Y-99443976D01*
X121668976Y-93637000D01*
X122441014Y-93637000D01*
X122425265Y-93674928D01*
X122425265Y-93674928D01*
G37*
X122425265Y-93674928D02*
X122424735Y-94282407D01*
X122441508Y-94323000D01*
X122174000Y-94323000D01*
X121819253Y-94393563D01*
X121518512Y-94594512D01*
X117835512Y-98277512D01*
X117634564Y-98578252D01*
X117564000Y-98933000D01*
X117564000Y-104645024D01*
X115862000Y-106347024D01*
X115862000Y-99443976D01*
X121668976Y-93637000D01*
X122441014Y-93637000D01*
X122425265Y-93674928D01*
G36*
X125438000Y-106277724D02*
X125247283Y-105816154D01*
X124841506Y-105409668D01*
X125245773Y-105006106D01*
X125438000Y-104543173D01*
X125438000Y-106277724D01*
X125438000Y-106277724D01*
G37*
X125438000Y-106277724D02*
X125247283Y-105816154D01*
X124841506Y-105409668D01*
X125245773Y-105006106D01*
X125438000Y-104543173D01*
X125438000Y-106277724D01*
G36*
X194526000Y-106277724D02*
X194335283Y-105816154D01*
X193929506Y-105409668D01*
X194333773Y-105006106D01*
X194526000Y-104543173D01*
X194526000Y-106277724D01*
X194526000Y-106277724D01*
G37*
X194526000Y-106277724D02*
X194335283Y-105816154D01*
X193929506Y-105409668D01*
X194333773Y-105006106D01*
X194526000Y-104543173D01*
X194526000Y-106277724D01*
G36*
X176504717Y-105003846D02*
X176910494Y-105410332D01*
X176506227Y-105813894D01*
X176314000Y-106276827D01*
X176314000Y-104542276D01*
X176504717Y-105003846D01*
X176504717Y-105003846D01*
G37*
X176504717Y-105003846D02*
X176910494Y-105410332D01*
X176506227Y-105813894D01*
X176314000Y-106276827D01*
X176314000Y-104542276D01*
X176504717Y-105003846D01*
G36*
X152909450Y-105753000D02*
X148842462Y-105753000D01*
X149020773Y-105575000D01*
X152731761Y-105575000D01*
X152909450Y-105753000D01*
X152909450Y-105753000D01*
G37*
X152909450Y-105753000D02*
X148842462Y-105753000D01*
X149020773Y-105575000D01*
X152731761Y-105575000D01*
X152909450Y-105753000D01*
G36*
X144361000Y-103415761D02*
X143994227Y-103781894D01*
X143761265Y-104342928D01*
X143760810Y-104864214D01*
X143507024Y-105118000D01*
X141893657Y-105118000D01*
X142156680Y-104724358D01*
X142272916Y-104140000D01*
X142201199Y-103779456D01*
X142467748Y-103726436D01*
X142768488Y-103525488D01*
X144361000Y-101932976D01*
X144361000Y-103415761D01*
X144361000Y-103415761D01*
G37*
X144361000Y-103415761D02*
X143994227Y-103781894D01*
X143761265Y-104342928D01*
X143760810Y-104864214D01*
X143507024Y-105118000D01*
X141893657Y-105118000D01*
X142156680Y-104724358D01*
X142272916Y-104140000D01*
X142201199Y-103779456D01*
X142467748Y-103726436D01*
X142768488Y-103525488D01*
X144361000Y-101932976D01*
X144361000Y-103415761D01*
G36*
X137774512Y-103525488D02*
X138075253Y-103726437D01*
X138430000Y-103797000D01*
X139227311Y-103797000D01*
X139159084Y-104140000D01*
X139275320Y-104724358D01*
X139538343Y-105118000D01*
X137924976Y-105118000D01*
X134612112Y-101805136D01*
X134652916Y-101600000D01*
X134536680Y-101015642D01*
X134205668Y-100520248D01*
X133920942Y-100330000D01*
X134205668Y-100139752D01*
X134279011Y-100029987D01*
X137774512Y-103525488D01*
X137774512Y-103525488D01*
G37*
X137774512Y-103525488D02*
X138075253Y-103726437D01*
X138430000Y-103797000D01*
X139227311Y-103797000D01*
X139159084Y-104140000D01*
X139275320Y-104724358D01*
X139538343Y-105118000D01*
X137924976Y-105118000D01*
X134612112Y-101805136D01*
X134652916Y-101600000D01*
X134536680Y-101015642D01*
X134205668Y-100520248D01*
X133920942Y-100330000D01*
X134205668Y-100139752D01*
X134279011Y-100029987D01*
X137774512Y-103525488D01*
G36*
X156904512Y-102255488D02*
X157205253Y-102456437D01*
X157560000Y-102527000D01*
X159824266Y-102527000D01*
X159926332Y-102679752D01*
X160211058Y-102870000D01*
X159926332Y-103060248D01*
X159595320Y-103555642D01*
X159479084Y-104140000D01*
X159519888Y-104345136D01*
X158874024Y-104991000D01*
X157974986Y-104991000D01*
X157990735Y-104953072D01*
X157991265Y-104345593D01*
X157759283Y-103784154D01*
X157330106Y-103354227D01*
X156883000Y-103168572D01*
X156883000Y-102233976D01*
X156904512Y-102255488D01*
X156904512Y-102255488D01*
G37*
X156904512Y-102255488D02*
X157205253Y-102456437D01*
X157560000Y-102527000D01*
X159824266Y-102527000D01*
X159926332Y-102679752D01*
X160211058Y-102870000D01*
X159926332Y-103060248D01*
X159595320Y-103555642D01*
X159479084Y-104140000D01*
X159519888Y-104345136D01*
X158874024Y-104991000D01*
X157974986Y-104991000D01*
X157990735Y-104953072D01*
X157991265Y-104345593D01*
X157759283Y-103784154D01*
X157330106Y-103354227D01*
X156883000Y-103168572D01*
X156883000Y-102233976D01*
X156904512Y-102255488D01*
G36*
X146861000Y-103415761D02*
X146537703Y-103738494D01*
X146215000Y-103415227D01*
X146215000Y-101420989D01*
X146631560Y-101248870D01*
X146861000Y-101019830D01*
X146861000Y-103415761D01*
X146861000Y-103415761D01*
G37*
X146861000Y-103415761D02*
X146537703Y-103738494D01*
X146215000Y-103415227D01*
X146215000Y-101420989D01*
X146631560Y-101248870D01*
X146861000Y-101019830D01*
X146861000Y-103415761D01*
G36*
X125438000Y-103737724D02*
X125247283Y-103276154D01*
X124841506Y-102869668D01*
X125245773Y-102466106D01*
X125438000Y-102003173D01*
X125438000Y-103737724D01*
X125438000Y-103737724D01*
G37*
X125438000Y-103737724D02*
X125247283Y-103276154D01*
X124841506Y-102869668D01*
X125245773Y-102466106D01*
X125438000Y-102003173D01*
X125438000Y-103737724D01*
G36*
X194526000Y-103737724D02*
X194335283Y-103276154D01*
X193929506Y-102869668D01*
X194333773Y-102466106D01*
X194526000Y-102003173D01*
X194526000Y-103737724D01*
X194526000Y-103737724D01*
G37*
X194526000Y-103737724D02*
X194335283Y-103276154D01*
X193929506Y-102869668D01*
X194333773Y-102466106D01*
X194526000Y-102003173D01*
X194526000Y-103737724D01*
G36*
X176504717Y-102463846D02*
X176910494Y-102870332D01*
X176506227Y-103273894D01*
X176314000Y-103736827D01*
X176314000Y-102002276D01*
X176504717Y-102463846D01*
X176504717Y-102463846D01*
G37*
X176504717Y-102463846D02*
X176910494Y-102870332D01*
X176506227Y-103273894D01*
X176314000Y-103736827D01*
X176314000Y-102002276D01*
X176504717Y-102463846D01*
G36*
X153097894Y-91717773D02*
X153658928Y-91950735D01*
X154266407Y-91951265D01*
X154827846Y-91719283D01*
X155029000Y-91518480D01*
X155029000Y-93834411D01*
X154704591Y-94158254D01*
X154479257Y-94700918D01*
X154478744Y-95288505D01*
X154703130Y-95831560D01*
X155118254Y-96247409D01*
X155660918Y-96472743D01*
X156122170Y-96473146D01*
X159364512Y-99715488D01*
X159665252Y-99916436D01*
X159794264Y-99942098D01*
X159926332Y-100139752D01*
X160211058Y-100330000D01*
X159926332Y-100520248D01*
X159824266Y-100673000D01*
X157943976Y-100673000D01*
X157432856Y-100161880D01*
X157433256Y-99703495D01*
X157208870Y-99160440D01*
X156793746Y-98744591D01*
X156251082Y-98519257D01*
X155663495Y-98518744D01*
X155120440Y-98743130D01*
X154704591Y-99158254D01*
X154479257Y-99700918D01*
X154478744Y-100288505D01*
X154703130Y-100831560D01*
X155029000Y-101157999D01*
X155029000Y-103553469D01*
X154830106Y-103354227D01*
X154269072Y-103121265D01*
X153661593Y-103120735D01*
X153100154Y-103352717D01*
X152731227Y-103721000D01*
X149020239Y-103721000D01*
X148715000Y-103415227D01*
X148715000Y-91656239D01*
X149020773Y-91351000D01*
X152731761Y-91351000D01*
X153097894Y-91717773D01*
X153097894Y-91717773D01*
G37*
X153097894Y-91717773D02*
X153658928Y-91950735D01*
X154266407Y-91951265D01*
X154827846Y-91719283D01*
X155029000Y-91518480D01*
X155029000Y-93834411D01*
X154704591Y-94158254D01*
X154479257Y-94700918D01*
X154478744Y-95288505D01*
X154703130Y-95831560D01*
X155118254Y-96247409D01*
X155660918Y-96472743D01*
X156122170Y-96473146D01*
X159364512Y-99715488D01*
X159665252Y-99916436D01*
X159794264Y-99942098D01*
X159926332Y-100139752D01*
X160211058Y-100330000D01*
X159926332Y-100520248D01*
X159824266Y-100673000D01*
X157943976Y-100673000D01*
X157432856Y-100161880D01*
X157433256Y-99703495D01*
X157208870Y-99160440D01*
X156793746Y-98744591D01*
X156251082Y-98519257D01*
X155663495Y-98518744D01*
X155120440Y-98743130D01*
X154704591Y-99158254D01*
X154479257Y-99700918D01*
X154478744Y-100288505D01*
X154703130Y-100831560D01*
X155029000Y-101157999D01*
X155029000Y-103553469D01*
X154830106Y-103354227D01*
X154269072Y-103121265D01*
X153661593Y-103120735D01*
X153100154Y-103352717D01*
X152731227Y-103721000D01*
X149020239Y-103721000D01*
X148715000Y-103415227D01*
X148715000Y-91656239D01*
X149020773Y-91351000D01*
X152731761Y-91351000D01*
X153097894Y-91717773D01*
G36*
X131986332Y-102679752D02*
X132271058Y-102870000D01*
X131986332Y-103060248D01*
X131737000Y-103433399D01*
X131737000Y-102306601D01*
X131986332Y-102679752D01*
X131986332Y-102679752D01*
G37*
X131986332Y-102679752D02*
X132271058Y-102870000D01*
X131986332Y-103060248D01*
X131737000Y-103433399D01*
X131737000Y-102306601D01*
X131986332Y-102679752D01*
G36*
X171412000Y-100332976D02*
X171412000Y-102791024D01*
X170835488Y-102214512D01*
X170790359Y-102184358D01*
X170534748Y-102013564D01*
X170180000Y-101943000D01*
X170144689Y-101943000D01*
X170212916Y-101600000D01*
X170096680Y-101015642D01*
X169765668Y-100520248D01*
X169480942Y-100330000D01*
X169765668Y-100139752D01*
X170096680Y-99644358D01*
X170200657Y-99121633D01*
X171412000Y-100332976D01*
X171412000Y-100332976D01*
G37*
X171412000Y-100332976D02*
X171412000Y-102791024D01*
X170835488Y-102214512D01*
X170790359Y-102184358D01*
X170534748Y-102013564D01*
X170180000Y-101943000D01*
X170144689Y-101943000D01*
X170212916Y-101600000D01*
X170096680Y-101015642D01*
X169765668Y-100520248D01*
X169480942Y-100330000D01*
X169765668Y-100139752D01*
X170096680Y-99644358D01*
X170200657Y-99121633D01*
X171412000Y-100332976D01*
G36*
X165460512Y-98445488D02*
X165761252Y-98646436D01*
X166116000Y-98717000D01*
X167167311Y-98717000D01*
X167099084Y-99060000D01*
X167215320Y-99644358D01*
X167546332Y-100139752D01*
X167831058Y-100330000D01*
X167546332Y-100520248D01*
X167215320Y-101015642D01*
X167099084Y-101600000D01*
X167167311Y-101943000D01*
X166118976Y-101943000D01*
X165011000Y-100835024D01*
X165011000Y-97995976D01*
X165460512Y-98445488D01*
X165460512Y-98445488D01*
G37*
X165460512Y-98445488D02*
X165761252Y-98646436D01*
X166116000Y-98717000D01*
X167167311Y-98717000D01*
X167099084Y-99060000D01*
X167215320Y-99644358D01*
X167546332Y-100139752D01*
X167831058Y-100330000D01*
X167546332Y-100520248D01*
X167215320Y-101015642D01*
X167099084Y-101600000D01*
X167167311Y-101943000D01*
X166118976Y-101943000D01*
X165011000Y-100835024D01*
X165011000Y-97995976D01*
X165460512Y-98445488D01*
G36*
X138075252Y-101186436D02*
X138430000Y-101257000D01*
X139227311Y-101257000D01*
X139159084Y-101600000D01*
X139227311Y-101943000D01*
X138813976Y-101943000D01*
X138021488Y-101150512D01*
X138075252Y-101186436D01*
X138075252Y-101186436D01*
G37*
X138075252Y-101186436D02*
X138430000Y-101257000D01*
X139227311Y-101257000D01*
X139159084Y-101600000D01*
X139227311Y-101943000D01*
X138813976Y-101943000D01*
X138021488Y-101150512D01*
X138075252Y-101186436D01*
G36*
X142239586Y-101432438D02*
X142204689Y-101257000D01*
X142240000Y-101257000D01*
X142458483Y-101213541D01*
X142239586Y-101432438D01*
X142239586Y-101432438D01*
G37*
X142239586Y-101432438D02*
X142204689Y-101257000D01*
X142240000Y-101257000D01*
X142458483Y-101213541D01*
X142239586Y-101432438D01*
G36*
X125438000Y-101197724D02*
X125247283Y-100736154D01*
X124841506Y-100329668D01*
X125245773Y-99926106D01*
X125438000Y-99463173D01*
X125438000Y-101197724D01*
X125438000Y-101197724D01*
G37*
X125438000Y-101197724D02*
X125247283Y-100736154D01*
X124841506Y-100329668D01*
X125245773Y-99926106D01*
X125438000Y-99463173D01*
X125438000Y-101197724D01*
G36*
X194526000Y-101197724D02*
X194335283Y-100736154D01*
X193929506Y-100329668D01*
X194333773Y-99926106D01*
X194526000Y-99463173D01*
X194526000Y-101197724D01*
X194526000Y-101197724D01*
G37*
X194526000Y-101197724D02*
X194335283Y-100736154D01*
X193929506Y-100329668D01*
X194333773Y-99926106D01*
X194526000Y-99463173D01*
X194526000Y-101197724D01*
G36*
X176504717Y-99923846D02*
X176910494Y-100330332D01*
X176506227Y-100733894D01*
X176314000Y-101196827D01*
X176314000Y-99462276D01*
X176504717Y-99923846D01*
X176504717Y-99923846D01*
G37*
X176504717Y-99923846D02*
X176910494Y-100330332D01*
X176506227Y-100733894D01*
X176314000Y-101196827D01*
X176314000Y-99462276D01*
X176504717Y-99923846D01*
G36*
X131986332Y-100139752D02*
X132271058Y-100330000D01*
X131986332Y-100520248D01*
X131737000Y-100893399D01*
X131737000Y-99766601D01*
X131986332Y-100139752D01*
X131986332Y-100139752D01*
G37*
X131986332Y-100139752D02*
X132271058Y-100330000D01*
X131986332Y-100520248D01*
X131737000Y-100893399D01*
X131737000Y-99766601D01*
X131986332Y-100139752D01*
G36*
X110464717Y-70205846D02*
X110833000Y-70574773D01*
X110833000Y-72427761D01*
X110466227Y-72793894D01*
X110233265Y-73354928D01*
X110232735Y-73962407D01*
X110464717Y-74523846D01*
X110833000Y-74892773D01*
X110833000Y-84074000D01*
X110903564Y-84428748D01*
X111069064Y-84676436D01*
X111104512Y-84729488D01*
X112882512Y-86507488D01*
X113183253Y-86708437D01*
X113538000Y-86779000D01*
X114845761Y-86779000D01*
X115211894Y-87145773D01*
X115239703Y-87157321D01*
X110596512Y-91800512D01*
X110395564Y-92101252D01*
X110325000Y-92456000D01*
X110325000Y-99946024D01*
X109771283Y-100499741D01*
X109601506Y-100329668D01*
X110005773Y-99926106D01*
X110238735Y-99365072D01*
X110239265Y-98757593D01*
X110007283Y-98196154D01*
X109601506Y-97789668D01*
X110005773Y-97386106D01*
X110238735Y-96825072D01*
X110239265Y-96217593D01*
X110007283Y-95656154D01*
X109601506Y-95249668D01*
X110005773Y-94846106D01*
X110238735Y-94285072D01*
X110239265Y-93677593D01*
X110007283Y-93116154D01*
X109601506Y-92709668D01*
X110005773Y-92306106D01*
X110238735Y-91745072D01*
X110239265Y-91137593D01*
X110007283Y-90576154D01*
X109601506Y-90169668D01*
X110005773Y-89766106D01*
X110238735Y-89205072D01*
X110239265Y-88597593D01*
X110007283Y-88036154D01*
X109601506Y-87629668D01*
X110005773Y-87226106D01*
X110238735Y-86665072D01*
X110239265Y-86057593D01*
X110007283Y-85496154D01*
X109601506Y-85089668D01*
X110005773Y-84686106D01*
X110238735Y-84125072D01*
X110239265Y-83517593D01*
X110007283Y-82956154D01*
X109601506Y-82549668D01*
X110005773Y-82146106D01*
X110238735Y-81585072D01*
X110239265Y-80977593D01*
X110007283Y-80416154D01*
X109601506Y-80009668D01*
X110005773Y-79606106D01*
X110238735Y-79045072D01*
X110239265Y-78437593D01*
X110007283Y-77876154D01*
X109578106Y-77446227D01*
X109017072Y-77213265D01*
X108409593Y-77212735D01*
X108115000Y-77334458D01*
X108115000Y-71884976D01*
X110268649Y-69731327D01*
X110464717Y-70205846D01*
X110464717Y-70205846D01*
G37*
X110464717Y-70205846D02*
X110833000Y-70574773D01*
X110833000Y-72427761D01*
X110466227Y-72793894D01*
X110233265Y-73354928D01*
X110232735Y-73962407D01*
X110464717Y-74523846D01*
X110833000Y-74892773D01*
X110833000Y-84074000D01*
X110903564Y-84428748D01*
X111069064Y-84676436D01*
X111104512Y-84729488D01*
X112882512Y-86507488D01*
X113183253Y-86708437D01*
X113538000Y-86779000D01*
X114845761Y-86779000D01*
X115211894Y-87145773D01*
X115239703Y-87157321D01*
X110596512Y-91800512D01*
X110395564Y-92101252D01*
X110325000Y-92456000D01*
X110325000Y-99946024D01*
X109771283Y-100499741D01*
X109601506Y-100329668D01*
X110005773Y-99926106D01*
X110238735Y-99365072D01*
X110239265Y-98757593D01*
X110007283Y-98196154D01*
X109601506Y-97789668D01*
X110005773Y-97386106D01*
X110238735Y-96825072D01*
X110239265Y-96217593D01*
X110007283Y-95656154D01*
X109601506Y-95249668D01*
X110005773Y-94846106D01*
X110238735Y-94285072D01*
X110239265Y-93677593D01*
X110007283Y-93116154D01*
X109601506Y-92709668D01*
X110005773Y-92306106D01*
X110238735Y-91745072D01*
X110239265Y-91137593D01*
X110007283Y-90576154D01*
X109601506Y-90169668D01*
X110005773Y-89766106D01*
X110238735Y-89205072D01*
X110239265Y-88597593D01*
X110007283Y-88036154D01*
X109601506Y-87629668D01*
X110005773Y-87226106D01*
X110238735Y-86665072D01*
X110239265Y-86057593D01*
X110007283Y-85496154D01*
X109601506Y-85089668D01*
X110005773Y-84686106D01*
X110238735Y-84125072D01*
X110239265Y-83517593D01*
X110007283Y-82956154D01*
X109601506Y-82549668D01*
X110005773Y-82146106D01*
X110238735Y-81585072D01*
X110239265Y-80977593D01*
X110007283Y-80416154D01*
X109601506Y-80009668D01*
X110005773Y-79606106D01*
X110238735Y-79045072D01*
X110239265Y-78437593D01*
X110007283Y-77876154D01*
X109578106Y-77446227D01*
X109017072Y-77213265D01*
X108409593Y-77212735D01*
X108115000Y-77334458D01*
X108115000Y-71884976D01*
X110268649Y-69731327D01*
X110464717Y-70205846D01*
G36*
X179159000Y-100200024D02*
X178859283Y-100499741D01*
X178689506Y-100329668D01*
X179093773Y-99926106D01*
X179159000Y-99769022D01*
X179159000Y-100200024D01*
X179159000Y-100200024D01*
G37*
X179159000Y-100200024D02*
X178859283Y-100499741D01*
X178689506Y-100329668D01*
X179093773Y-99926106D01*
X179159000Y-99769022D01*
X179159000Y-100200024D01*
G36*
X138282512Y-98445488D02*
X138583252Y-98646436D01*
X138938000Y-98717000D01*
X139227311Y-98717000D01*
X139159084Y-99060000D01*
X139227311Y-99403000D01*
X138813976Y-99403000D01*
X136545488Y-97134512D01*
X136500359Y-97104358D01*
X136244748Y-96933564D01*
X135890000Y-96863000D01*
X134584689Y-96863000D01*
X134652916Y-96520000D01*
X134584689Y-96177000D01*
X136014024Y-96177000D01*
X138282512Y-98445488D01*
X138282512Y-98445488D01*
G37*
X138282512Y-98445488D02*
X138583252Y-98646436D01*
X138938000Y-98717000D01*
X139227311Y-98717000D01*
X139159084Y-99060000D01*
X139227311Y-99403000D01*
X138813976Y-99403000D01*
X136545488Y-97134512D01*
X136500359Y-97104358D01*
X136244748Y-96933564D01*
X135890000Y-96863000D01*
X134584689Y-96863000D01*
X134652916Y-96520000D01*
X134584689Y-96177000D01*
X136014024Y-96177000D01*
X138282512Y-98445488D01*
G36*
X142583000Y-98676024D02*
X142260657Y-98998367D01*
X142163564Y-98510250D01*
X142260488Y-98445488D01*
X142583000Y-98122976D01*
X142583000Y-98676024D01*
X142583000Y-98676024D01*
G37*
X142583000Y-98676024D02*
X142260657Y-98998367D01*
X142163564Y-98510250D01*
X142260488Y-98445488D01*
X142583000Y-98122976D01*
X142583000Y-98676024D01*
G36*
X146861000Y-98972242D02*
X146633746Y-98744591D01*
X146293618Y-98603358D01*
X146451488Y-98445488D01*
X146613136Y-98203564D01*
X146652436Y-98144748D01*
X146723000Y-97790000D01*
X146723000Y-96157589D01*
X146861000Y-96019830D01*
X146861000Y-98972242D01*
X146861000Y-98972242D01*
G37*
X146861000Y-98972242D02*
X146633746Y-98744591D01*
X146293618Y-98603358D01*
X146451488Y-98445488D01*
X146613136Y-98203564D01*
X146652436Y-98144748D01*
X146723000Y-97790000D01*
X146723000Y-96157589D01*
X146861000Y-96019830D01*
X146861000Y-98972242D01*
G36*
X194526000Y-98657724D02*
X194335283Y-98196154D01*
X193929506Y-97789668D01*
X194333773Y-97386106D01*
X194526000Y-96923173D01*
X194526000Y-98657724D01*
X194526000Y-98657724D01*
G37*
X194526000Y-98657724D02*
X194335283Y-98196154D01*
X193929506Y-97789668D01*
X194333773Y-97386106D01*
X194526000Y-96923173D01*
X194526000Y-98657724D01*
G36*
X125709512Y-96880512D02*
X125508564Y-97181252D01*
X125438000Y-97536000D01*
X125438000Y-98657724D01*
X125247283Y-98196154D01*
X124841506Y-97789668D01*
X125245773Y-97386106D01*
X125478735Y-96825072D01*
X125479265Y-96217593D01*
X125462492Y-96177000D01*
X126238000Y-96177000D01*
X126456483Y-96133541D01*
X125709512Y-96880512D01*
X125709512Y-96880512D01*
G37*
X125709512Y-96880512D02*
X125508564Y-97181252D01*
X125438000Y-97536000D01*
X125438000Y-98657724D01*
X125247283Y-98196154D01*
X124841506Y-97789668D01*
X125245773Y-97386106D01*
X125478735Y-96825072D01*
X125479265Y-96217593D01*
X125462492Y-96177000D01*
X126238000Y-96177000D01*
X126456483Y-96133541D01*
X125709512Y-96880512D01*
G36*
X176504717Y-97383846D02*
X176910494Y-97790332D01*
X176506227Y-98193894D01*
X176314000Y-98656827D01*
X176314000Y-96922276D01*
X176504717Y-97383846D01*
X176504717Y-97383846D01*
G37*
X176504717Y-97383846D02*
X176910494Y-97790332D01*
X176506227Y-98193894D01*
X176314000Y-98656827D01*
X176314000Y-96922276D01*
X176504717Y-97383846D01*
G36*
X179159000Y-98350361D02*
X179095283Y-98196154D01*
X178689506Y-97789668D01*
X179093773Y-97386106D01*
X179159000Y-97229022D01*
X179159000Y-98350361D01*
X179159000Y-98350361D01*
G37*
X179159000Y-98350361D02*
X179095283Y-98196154D01*
X178689506Y-97789668D01*
X179093773Y-97386106D01*
X179159000Y-97229022D01*
X179159000Y-98350361D01*
G36*
X159491512Y-88285488D02*
X159588436Y-88350251D01*
X159479084Y-88900000D01*
X159595320Y-89484358D01*
X159926332Y-89979752D01*
X160211058Y-90170000D01*
X159926332Y-90360248D01*
X159595320Y-90855642D01*
X159479084Y-91440000D01*
X159595320Y-92024358D01*
X159926332Y-92519752D01*
X160211058Y-92710000D01*
X159926332Y-92900248D01*
X159595320Y-93395642D01*
X159479084Y-93980000D01*
X159595320Y-94564358D01*
X159926332Y-95059752D01*
X160211058Y-95250000D01*
X159926332Y-95440248D01*
X159595320Y-95935642D01*
X159479084Y-96520000D01*
X159595320Y-97104358D01*
X159926332Y-97599752D01*
X160211058Y-97790000D01*
X160121090Y-97850114D01*
X157432856Y-95161880D01*
X157433256Y-94703495D01*
X157208870Y-94160440D01*
X156883000Y-93834001D01*
X156883000Y-91903090D01*
X157327846Y-91719283D01*
X157757773Y-91290106D01*
X157990735Y-90729072D01*
X157991265Y-90121593D01*
X157759283Y-89560154D01*
X157754557Y-89555419D01*
X159258000Y-88051976D01*
X159491512Y-88285488D01*
X159491512Y-88285488D01*
G37*
X159491512Y-88285488D02*
X159588436Y-88350251D01*
X159479084Y-88900000D01*
X159595320Y-89484358D01*
X159926332Y-89979752D01*
X160211058Y-90170000D01*
X159926332Y-90360248D01*
X159595320Y-90855642D01*
X159479084Y-91440000D01*
X159595320Y-92024358D01*
X159926332Y-92519752D01*
X160211058Y-92710000D01*
X159926332Y-92900248D01*
X159595320Y-93395642D01*
X159479084Y-93980000D01*
X159595320Y-94564358D01*
X159926332Y-95059752D01*
X160211058Y-95250000D01*
X159926332Y-95440248D01*
X159595320Y-95935642D01*
X159479084Y-96520000D01*
X159595320Y-97104358D01*
X159926332Y-97599752D01*
X160211058Y-97790000D01*
X160121090Y-97850114D01*
X157432856Y-95161880D01*
X157433256Y-94703495D01*
X157208870Y-94160440D01*
X156883000Y-93834001D01*
X156883000Y-91903090D01*
X157327846Y-91719283D01*
X157757773Y-91290106D01*
X157990735Y-90729072D01*
X157991265Y-90121593D01*
X157759283Y-89560154D01*
X157754557Y-89555419D01*
X159258000Y-88051976D01*
X159491512Y-88285488D01*
G36*
X131539084Y-96520000D02*
X131615634Y-96904844D01*
X131471252Y-96933564D01*
X131215641Y-97104358D01*
X131170512Y-97134512D01*
X130467000Y-97838024D01*
X130467000Y-97538976D01*
X131552271Y-96453705D01*
X131539084Y-96520000D01*
X131539084Y-96520000D01*
G37*
X131539084Y-96520000D02*
X131615634Y-96904844D01*
X131471252Y-96933564D01*
X131215641Y-97104358D01*
X131170512Y-97134512D01*
X130467000Y-97838024D01*
X130467000Y-97538976D01*
X131552271Y-96453705D01*
X131539084Y-96520000D01*
G36*
X144543130Y-95831560D02*
X144869000Y-96157999D01*
X144869000Y-97406024D01*
X144437000Y-97838024D01*
X144437000Y-95574706D01*
X144543130Y-95831560D01*
X144543130Y-95831560D01*
G37*
X144543130Y-95831560D02*
X144869000Y-96157999D01*
X144869000Y-97406024D01*
X144437000Y-97838024D01*
X144437000Y-95574706D01*
X144543130Y-95831560D01*
G36*
X174460000Y-93855976D02*
X174460000Y-96949024D01*
X170835488Y-93324512D01*
X170809279Y-93307000D01*
X170555528Y-93137448D01*
X171089488Y-92603488D01*
X171290437Y-92302747D01*
X171361000Y-91948000D01*
X171361000Y-90932000D01*
X171317541Y-90713517D01*
X174460000Y-93855976D01*
X174460000Y-93855976D01*
G37*
X174460000Y-93855976D02*
X174460000Y-96949024D01*
X170835488Y-93324512D01*
X170809279Y-93307000D01*
X170555528Y-93137448D01*
X171089488Y-92603488D01*
X171290437Y-92302747D01*
X171361000Y-91948000D01*
X171361000Y-90932000D01*
X171317541Y-90713517D01*
X174460000Y-93855976D01*
G36*
X165894564Y-92990252D02*
X165824000Y-93345000D01*
X165824000Y-94615000D01*
X165894564Y-94969748D01*
X166064929Y-95224717D01*
X166095512Y-95270488D01*
X166730512Y-95905488D01*
X167031253Y-96106437D01*
X167175634Y-96135156D01*
X167099084Y-96520000D01*
X167167311Y-96863000D01*
X166499976Y-96863000D01*
X165773000Y-96136024D01*
X165773000Y-93093976D01*
X165930488Y-92936488D01*
X165894564Y-92990252D01*
X165894564Y-92990252D01*
G37*
X165894564Y-92990252D02*
X165824000Y-93345000D01*
X165824000Y-94615000D01*
X165894564Y-94969748D01*
X166064929Y-95224717D01*
X166095512Y-95270488D01*
X166730512Y-95905488D01*
X167031253Y-96106437D01*
X167175634Y-96135156D01*
X167099084Y-96520000D01*
X167167311Y-96863000D01*
X166499976Y-96863000D01*
X165773000Y-96136024D01*
X165773000Y-93093976D01*
X165930488Y-92936488D01*
X165894564Y-92990252D01*
G36*
X122425265Y-88594928D02*
X122424735Y-89202407D01*
X122441508Y-89243000D01*
X119634000Y-89243000D01*
X119279252Y-89313564D01*
X119023641Y-89484358D01*
X118978512Y-89514512D01*
X112247512Y-96245512D01*
X112179000Y-96348047D01*
X112179000Y-92839976D01*
X116461976Y-88557000D01*
X122441014Y-88557000D01*
X122425265Y-88594928D01*
X122425265Y-88594928D01*
G37*
X122425265Y-88594928D02*
X122424735Y-89202407D01*
X122441508Y-89243000D01*
X119634000Y-89243000D01*
X119279252Y-89313564D01*
X119023641Y-89484358D01*
X118978512Y-89514512D01*
X112247512Y-96245512D01*
X112179000Y-96348047D01*
X112179000Y-92839976D01*
X116461976Y-88557000D01*
X122441014Y-88557000D01*
X122425265Y-88594928D01*
G36*
X194526000Y-96117724D02*
X194335283Y-95656154D01*
X193929506Y-95249668D01*
X194333773Y-94846106D01*
X194526000Y-94383173D01*
X194526000Y-96117724D01*
X194526000Y-96117724D01*
G37*
X194526000Y-96117724D02*
X194335283Y-95656154D01*
X193929506Y-95249668D01*
X194333773Y-94846106D01*
X194526000Y-94383173D01*
X194526000Y-96117724D01*
G36*
X176504717Y-94843846D02*
X176910494Y-95250332D01*
X176506227Y-95653894D01*
X176314000Y-96116827D01*
X176314000Y-94382276D01*
X176504717Y-94843846D01*
X176504717Y-94843846D01*
G37*
X176504717Y-94843846D02*
X176910494Y-95250332D01*
X176506227Y-95653894D01*
X176314000Y-96116827D01*
X176314000Y-94382276D01*
X176504717Y-94843846D01*
G36*
X179159000Y-95810361D02*
X179095283Y-95656154D01*
X178689506Y-95249668D01*
X179093773Y-94846106D01*
X179159000Y-94689022D01*
X179159000Y-95810361D01*
X179159000Y-95810361D01*
G37*
X179159000Y-95810361D02*
X179095283Y-95656154D01*
X178689506Y-95249668D01*
X179093773Y-94846106D01*
X179159000Y-94689022D01*
X179159000Y-95810361D01*
G36*
X138583253Y-94836437D02*
X138938000Y-94907000D01*
X139504266Y-94907000D01*
X139606332Y-95059752D01*
X139891058Y-95250000D01*
X139606332Y-95440248D01*
X139504266Y-95593000D01*
X139321976Y-95593000D01*
X138529489Y-94800513D01*
X138583253Y-94836437D01*
X138583253Y-94836437D01*
G37*
X138583253Y-94836437D02*
X138938000Y-94907000D01*
X139504266Y-94907000D01*
X139606332Y-95059752D01*
X139891058Y-95250000D01*
X139606332Y-95440248D01*
X139504266Y-95593000D01*
X139321976Y-95593000D01*
X138529489Y-94800513D01*
X138583253Y-94836437D01*
G36*
X141567000Y-95267411D02*
X141540942Y-95250000D01*
X141567000Y-95232589D01*
X141567000Y-95267411D01*
X141567000Y-95267411D01*
G37*
X141567000Y-95267411D02*
X141540942Y-95250000D01*
X141567000Y-95232589D01*
X141567000Y-95267411D01*
G36*
X144869000Y-91903428D02*
X144869000Y-93834411D01*
X144544591Y-94158254D01*
X144437000Y-94417362D01*
X144437000Y-91724046D01*
X144869000Y-91903428D01*
X144869000Y-91903428D01*
G37*
X144869000Y-91903428D02*
X144869000Y-93834411D01*
X144544591Y-94158254D01*
X144437000Y-94417362D01*
X144437000Y-91724046D01*
X144869000Y-91903428D01*
G36*
X135430024Y-94323000D02*
X134584689Y-94323000D01*
X134652916Y-93980000D01*
X134584689Y-93637000D01*
X134744024Y-93637000D01*
X135430024Y-94323000D01*
X135430024Y-94323000D01*
G37*
X135430024Y-94323000D02*
X134584689Y-94323000D01*
X134652916Y-93980000D01*
X134584689Y-93637000D01*
X134744024Y-93637000D01*
X135430024Y-94323000D01*
G36*
X131539084Y-88900000D02*
X131607311Y-89243000D01*
X131318000Y-89243000D01*
X130963252Y-89313564D01*
X130707641Y-89484358D01*
X130662512Y-89514512D01*
X125854024Y-94323000D01*
X125462986Y-94323000D01*
X125478735Y-94285072D01*
X125479265Y-93677593D01*
X125462492Y-93637000D01*
X125984000Y-93637000D01*
X126338748Y-93566436D01*
X126639488Y-93365488D01*
X131447976Y-88557000D01*
X131607311Y-88557000D01*
X131539084Y-88900000D01*
X131539084Y-88900000D01*
G37*
X131539084Y-88900000D02*
X131607311Y-89243000D01*
X131318000Y-89243000D01*
X130963252Y-89313564D01*
X130707641Y-89484358D01*
X130662512Y-89514512D01*
X125854024Y-94323000D01*
X125462986Y-94323000D01*
X125478735Y-94285072D01*
X125479265Y-93677593D01*
X125462492Y-93637000D01*
X125984000Y-93637000D01*
X126338748Y-93566436D01*
X126639488Y-93365488D01*
X131447976Y-88557000D01*
X131607311Y-88557000D01*
X131539084Y-88900000D01*
G36*
X146861000Y-91656773D02*
X146861000Y-93972242D01*
X146723000Y-93834001D01*
X146723000Y-91518531D01*
X146861000Y-91656773D01*
X146861000Y-91656773D01*
G37*
X146861000Y-91656773D02*
X146861000Y-93972242D01*
X146723000Y-93834001D01*
X146723000Y-91518531D01*
X146861000Y-91656773D01*
G36*
X183934000Y-93901024D02*
X183934000Y-89664976D01*
X186311976Y-87287000D01*
X190548024Y-87287000D01*
X183934000Y-93901024D01*
X183934000Y-93901024D01*
G37*
X183934000Y-93901024D02*
X183934000Y-89664976D01*
X186311976Y-87287000D01*
X190548024Y-87287000D01*
X183934000Y-93901024D01*
G36*
X194526000Y-93577724D02*
X194335283Y-93116154D01*
X193929506Y-92709668D01*
X194333773Y-92306106D01*
X194526000Y-91843173D01*
X194526000Y-93577724D01*
X194526000Y-93577724D01*
G37*
X194526000Y-93577724D02*
X194335283Y-93116154D01*
X193929506Y-92709668D01*
X194333773Y-92306106D01*
X194526000Y-91843173D01*
X194526000Y-93577724D01*
G36*
X138583253Y-92296437D02*
X138938000Y-92367000D01*
X139504266Y-92367000D01*
X139606332Y-92519752D01*
X139891058Y-92710000D01*
X139606332Y-92900248D01*
X139504266Y-93053000D01*
X139321976Y-93053000D01*
X138529489Y-92260513D01*
X138583253Y-92296437D01*
X138583253Y-92296437D01*
G37*
X138583253Y-92296437D02*
X138938000Y-92367000D01*
X139504266Y-92367000D01*
X139606332Y-92519752D01*
X139891058Y-92710000D01*
X139606332Y-92900248D01*
X139504266Y-93053000D01*
X139321976Y-93053000D01*
X138529489Y-92260513D01*
X138583253Y-92296437D01*
G36*
X180556000Y-89664976D02*
X180556000Y-92885024D01*
X179725488Y-92054512D01*
X179614817Y-91980564D01*
X179424748Y-91853564D01*
X179292600Y-91827278D01*
X179326735Y-91745072D01*
X179327265Y-91137593D01*
X179095283Y-90576154D01*
X178689506Y-90169668D01*
X179093773Y-89766106D01*
X179326735Y-89205072D01*
X179327265Y-88597593D01*
X179310492Y-88557000D01*
X179448024Y-88557000D01*
X180556000Y-89664976D01*
X180556000Y-89664976D01*
G37*
X180556000Y-89664976D02*
X180556000Y-92885024D01*
X179725488Y-92054512D01*
X179614817Y-91980564D01*
X179424748Y-91853564D01*
X179292600Y-91827278D01*
X179326735Y-91745072D01*
X179327265Y-91137593D01*
X179095283Y-90576154D01*
X178689506Y-90169668D01*
X179093773Y-89766106D01*
X179326735Y-89205072D01*
X179327265Y-88597593D01*
X179310492Y-88557000D01*
X179448024Y-88557000D01*
X180556000Y-89664976D01*
G36*
X141567000Y-92727411D02*
X141540942Y-92710000D01*
X141567000Y-92692589D01*
X141567000Y-92727411D01*
X141567000Y-92727411D01*
G37*
X141567000Y-92727411D02*
X141540942Y-92710000D01*
X141567000Y-92692589D01*
X141567000Y-92727411D01*
G36*
X135536512Y-91889488D02*
X135482748Y-91853564D01*
X135128000Y-91783000D01*
X134584689Y-91783000D01*
X134652916Y-91440000D01*
X134584689Y-91097000D01*
X134744024Y-91097000D01*
X135536512Y-91889488D01*
X135536512Y-91889488D01*
G37*
X135536512Y-91889488D02*
X135482748Y-91853564D01*
X135128000Y-91783000D01*
X134584689Y-91783000D01*
X134652916Y-91440000D01*
X134584689Y-91097000D01*
X134744024Y-91097000D01*
X135536512Y-91889488D01*
G36*
X131539084Y-91440000D02*
X131607311Y-91783000D01*
X131191000Y-91783000D01*
X130972517Y-91826459D01*
X131583805Y-91215171D01*
X131539084Y-91440000D01*
X131539084Y-91440000D01*
G37*
X131539084Y-91440000D02*
X131607311Y-91783000D01*
X131191000Y-91783000D01*
X130972517Y-91826459D01*
X131583805Y-91215171D01*
X131539084Y-91440000D01*
G36*
X125600024Y-91783000D02*
X125462986Y-91783000D01*
X125478735Y-91745072D01*
X125479265Y-91137593D01*
X125462492Y-91097000D01*
X125984000Y-91097000D01*
X126338748Y-91026436D01*
X126392512Y-90990512D01*
X125600024Y-91783000D01*
X125600024Y-91783000D01*
G37*
X125600024Y-91783000D02*
X125462986Y-91783000D01*
X125478735Y-91745072D01*
X125479265Y-91137593D01*
X125462492Y-91097000D01*
X125984000Y-91097000D01*
X126338748Y-91026436D01*
X126392512Y-90990512D01*
X125600024Y-91783000D01*
G36*
X176273265Y-88594928D02*
X176272735Y-89202407D01*
X176504717Y-89763846D01*
X176910494Y-90170332D01*
X176506227Y-90573894D01*
X176273265Y-91134928D01*
X176273259Y-91142283D01*
X173687976Y-88557000D01*
X176289014Y-88557000D01*
X176273265Y-88594928D01*
X176273265Y-88594928D01*
G37*
X176273265Y-88594928D02*
X176272735Y-89202407D01*
X176504717Y-89763846D01*
X176910494Y-90170332D01*
X176506227Y-90573894D01*
X176273265Y-91134928D01*
X176273259Y-91142283D01*
X173687976Y-88557000D01*
X176289014Y-88557000D01*
X176273265Y-88594928D01*
G36*
X194526000Y-91037724D02*
X194335283Y-90576154D01*
X193929506Y-90169668D01*
X194333773Y-89766106D01*
X194526000Y-89303173D01*
X194526000Y-91037724D01*
X194526000Y-91037724D01*
G37*
X194526000Y-91037724D02*
X194335283Y-90576154D01*
X193929506Y-90169668D01*
X194333773Y-89766106D01*
X194526000Y-89303173D01*
X194526000Y-91037724D01*
G36*
X164532432Y-85433000D02*
X164571512Y-85491488D01*
X166095512Y-87015488D01*
X166396252Y-87216436D01*
X166751000Y-87287000D01*
X167444266Y-87287000D01*
X167546332Y-87439752D01*
X167831058Y-87630000D01*
X167546332Y-87820248D01*
X167215320Y-88315642D01*
X167099084Y-88900000D01*
X167167311Y-89243000D01*
X165608000Y-89243000D01*
X165253252Y-89313564D01*
X164997641Y-89484358D01*
X164952512Y-89514512D01*
X164249000Y-90218024D01*
X164249000Y-86868000D01*
X164178436Y-86513252D01*
X164095639Y-86389337D01*
X164104488Y-86380488D01*
X164305437Y-86079747D01*
X164376000Y-85725000D01*
X164376000Y-85198884D01*
X164532432Y-85433000D01*
X164532432Y-85433000D01*
G37*
X164532432Y-85433000D02*
X164571512Y-85491488D01*
X166095512Y-87015488D01*
X166396252Y-87216436D01*
X166751000Y-87287000D01*
X167444266Y-87287000D01*
X167546332Y-87439752D01*
X167831058Y-87630000D01*
X167546332Y-87820248D01*
X167215320Y-88315642D01*
X167099084Y-88900000D01*
X167167311Y-89243000D01*
X165608000Y-89243000D01*
X165253252Y-89313564D01*
X164997641Y-89484358D01*
X164952512Y-89514512D01*
X164249000Y-90218024D01*
X164249000Y-86868000D01*
X164178436Y-86513252D01*
X164095639Y-86389337D01*
X164104488Y-86380488D01*
X164305437Y-86079747D01*
X164376000Y-85725000D01*
X164376000Y-85198884D01*
X164532432Y-85433000D01*
G36*
X142583000Y-88902976D02*
X142583000Y-89583024D01*
X142514488Y-89514512D01*
X142469359Y-89484358D01*
X142213748Y-89313564D01*
X142191532Y-89309145D01*
X142272916Y-88900000D01*
X142204689Y-88557000D01*
X142237024Y-88557000D01*
X142583000Y-88902976D01*
X142583000Y-88902976D01*
G37*
X142583000Y-88902976D02*
X142583000Y-89583024D01*
X142514488Y-89514512D01*
X142469359Y-89484358D01*
X142213748Y-89313564D01*
X142191532Y-89309145D01*
X142272916Y-88900000D01*
X142204689Y-88557000D01*
X142237024Y-88557000D01*
X142583000Y-88902976D01*
G36*
X145655236Y-84404358D02*
X145986248Y-84899752D01*
X146456184Y-85213754D01*
X146202154Y-85318717D01*
X145772227Y-85747894D01*
X145539265Y-86308928D01*
X145538735Y-86916407D01*
X145770717Y-87477846D01*
X146199894Y-87907773D01*
X146760928Y-88140735D01*
X146861000Y-88140822D01*
X146861000Y-89191761D01*
X146537703Y-89514494D01*
X146154106Y-89130227D01*
X145593072Y-88897265D01*
X144985593Y-88896735D01*
X144437000Y-89123409D01*
X144437000Y-88519000D01*
X144430523Y-88486436D01*
X144366437Y-88164253D01*
X144165488Y-87863512D01*
X143276488Y-86974512D01*
X143193516Y-86919072D01*
X143072658Y-86838318D01*
X145630579Y-84280397D01*
X145655236Y-84404358D01*
X145655236Y-84404358D01*
G37*
X145655236Y-84404358D02*
X145986248Y-84899752D01*
X146456184Y-85213754D01*
X146202154Y-85318717D01*
X145772227Y-85747894D01*
X145539265Y-86308928D01*
X145538735Y-86916407D01*
X145770717Y-87477846D01*
X146199894Y-87907773D01*
X146760928Y-88140735D01*
X146861000Y-88140822D01*
X146861000Y-89191761D01*
X146537703Y-89514494D01*
X146154106Y-89130227D01*
X145593072Y-88897265D01*
X144985593Y-88896735D01*
X144437000Y-89123409D01*
X144437000Y-88519000D01*
X144430523Y-88486436D01*
X144366437Y-88164253D01*
X144165488Y-87863512D01*
X143276488Y-86974512D01*
X143193516Y-86919072D01*
X143072658Y-86838318D01*
X145630579Y-84280397D01*
X145655236Y-84404358D01*
G36*
X150908564Y-87603748D02*
X151053225Y-87820248D01*
X151109512Y-87904488D01*
X152702024Y-89497000D01*
X149020239Y-89497000D01*
X148715000Y-89191227D01*
X148715000Y-88141000D01*
X149606000Y-88141000D01*
X150190358Y-88024764D01*
X150685752Y-87693752D01*
X150871246Y-87416140D01*
X150908564Y-87603748D01*
X150908564Y-87603748D01*
G37*
X150908564Y-87603748D02*
X151053225Y-87820248D01*
X151109512Y-87904488D01*
X152702024Y-89497000D01*
X149020239Y-89497000D01*
X148715000Y-89191227D01*
X148715000Y-88141000D01*
X149606000Y-88141000D01*
X150190358Y-88024764D01*
X150685752Y-87693752D01*
X150871246Y-87416140D01*
X150908564Y-87603748D01*
G36*
X135536512Y-89349488D02*
X135482748Y-89313564D01*
X135128000Y-89243000D01*
X134584689Y-89243000D01*
X134652916Y-88900000D01*
X134584689Y-88557000D01*
X134744024Y-88557000D01*
X135536512Y-89349488D01*
X135536512Y-89349488D01*
G37*
X135536512Y-89349488D02*
X135482748Y-89313564D01*
X135128000Y-89243000D01*
X134584689Y-89243000D01*
X134652916Y-88900000D01*
X134584689Y-88557000D01*
X134744024Y-88557000D01*
X135536512Y-89349488D01*
G36*
X131554758Y-84163000D02*
X131064000Y-84163000D01*
X130709252Y-84233564D01*
X130572805Y-84324735D01*
X130408512Y-84434512D01*
X125600024Y-89243000D01*
X125462986Y-89243000D01*
X125478735Y-89205072D01*
X125479265Y-88597593D01*
X125409410Y-88428530D01*
X125623488Y-88285488D01*
X130558976Y-83350000D01*
X131554758Y-83350000D01*
X131554758Y-84163000D01*
X131554758Y-84163000D01*
G37*
X131554758Y-84163000D02*
X131064000Y-84163000D01*
X130709252Y-84233564D01*
X130572805Y-84324735D01*
X130408512Y-84434512D01*
X125600024Y-89243000D01*
X125462986Y-89243000D01*
X125478735Y-89205072D01*
X125479265Y-88597593D01*
X125409410Y-88428530D01*
X125623488Y-88285488D01*
X130558976Y-83350000D01*
X131554758Y-83350000D01*
X131554758Y-84163000D01*
G36*
X180844735Y-86154407D02*
X181076717Y-86715846D01*
X181505894Y-87145773D01*
X182066928Y-87378735D01*
X182674407Y-87379265D01*
X183235846Y-87147283D01*
X183604773Y-86779000D01*
X184198024Y-86779000D01*
X182351512Y-88625512D01*
X182245000Y-88784918D01*
X182138488Y-88625512D01*
X180487488Y-86974512D01*
X180404516Y-86919072D01*
X180186748Y-86773564D01*
X179832000Y-86703000D01*
X179310986Y-86703000D01*
X179326735Y-86665072D01*
X179327265Y-86057593D01*
X179310492Y-86017000D01*
X180844855Y-86017000D01*
X180844735Y-86154407D01*
X180844735Y-86154407D01*
G37*
X180844735Y-86154407D02*
X181076717Y-86715846D01*
X181505894Y-87145773D01*
X182066928Y-87378735D01*
X182674407Y-87379265D01*
X183235846Y-87147283D01*
X183604773Y-86779000D01*
X184198024Y-86779000D01*
X182351512Y-88625512D01*
X182245000Y-88784918D01*
X182138488Y-88625512D01*
X180487488Y-86974512D01*
X180404516Y-86919072D01*
X180186748Y-86773564D01*
X179832000Y-86703000D01*
X179310986Y-86703000D01*
X179326735Y-86665072D01*
X179327265Y-86057593D01*
X179310492Y-86017000D01*
X180844855Y-86017000D01*
X180844735Y-86154407D01*
G36*
X194526000Y-88497724D02*
X194442456Y-88295532D01*
X194457488Y-88285488D01*
X194526000Y-88216976D01*
X194526000Y-88497724D01*
X194526000Y-88497724D01*
G37*
X194526000Y-88497724D02*
X194442456Y-88295532D01*
X194457488Y-88285488D01*
X194526000Y-88216976D01*
X194526000Y-88497724D01*
G36*
X170482024Y-87973000D02*
X169867734Y-87973000D01*
X169765668Y-87820248D01*
X169480942Y-87630000D01*
X169765668Y-87439752D01*
X169839011Y-87329987D01*
X170482024Y-87973000D01*
X170482024Y-87973000D01*
G37*
X170482024Y-87973000D02*
X169867734Y-87973000D01*
X169765668Y-87820248D01*
X169480942Y-87630000D01*
X169765668Y-87439752D01*
X169839011Y-87329987D01*
X170482024Y-87973000D01*
G36*
X131539084Y-86360000D02*
X131607311Y-86703000D01*
X131064000Y-86703000D01*
X130709252Y-86773564D01*
X130655488Y-86809488D01*
X131447976Y-86017000D01*
X131607311Y-86017000D01*
X131539084Y-86360000D01*
X131539084Y-86360000D01*
G37*
X131539084Y-86360000D02*
X131607311Y-86703000D01*
X131064000Y-86703000D01*
X130709252Y-86773564D01*
X130655488Y-86809488D01*
X131447976Y-86017000D01*
X131607311Y-86017000D01*
X131539084Y-86360000D01*
G36*
X175620512Y-85745488D02*
X175921252Y-85946436D01*
X176276000Y-86017000D01*
X176289014Y-86017000D01*
X176273265Y-86054928D01*
X176272735Y-86662407D01*
X176289508Y-86703000D01*
X173865976Y-86703000D01*
X171909976Y-84747000D01*
X174622024Y-84747000D01*
X175620512Y-85745488D01*
X175620512Y-85745488D01*
G37*
X175620512Y-85745488D02*
X175921252Y-85946436D01*
X176276000Y-86017000D01*
X176289014Y-86017000D01*
X176273265Y-86054928D01*
X176272735Y-86662407D01*
X176289508Y-86703000D01*
X173865976Y-86703000D01*
X171909976Y-84747000D01*
X174622024Y-84747000D01*
X175620512Y-85745488D01*
G36*
X139199888Y-86154864D02*
X139159084Y-86360000D01*
X139203805Y-86584829D01*
X135968976Y-83350000D01*
X136395024Y-83350000D01*
X139199888Y-86154864D01*
X139199888Y-86154864D01*
G37*
X139199888Y-86154864D02*
X139159084Y-86360000D01*
X139203805Y-86584829D01*
X135968976Y-83350000D01*
X136395024Y-83350000D01*
X139199888Y-86154864D01*
G36*
X156553000Y-85722024D02*
X156213000Y-86062024D01*
X156213000Y-84584403D01*
X156553000Y-84516773D01*
X156553000Y-85722024D01*
X156553000Y-85722024D01*
G37*
X156553000Y-85722024D02*
X156213000Y-86062024D01*
X156213000Y-84584403D01*
X156553000Y-84516773D01*
X156553000Y-85722024D01*
G36*
X161351749Y-70001275D02*
X160713789Y-70000718D01*
X160115582Y-70247892D01*
X160015352Y-70347947D01*
X159927328Y-70211154D01*
X159684385Y-70045157D01*
X159396000Y-69986758D01*
X157596000Y-69986758D01*
X157326590Y-70037451D01*
X157079154Y-70196672D01*
X156913157Y-70439615D01*
X156854758Y-70728000D01*
X156854758Y-72528000D01*
X156905451Y-72797410D01*
X157064672Y-73044846D01*
X157307615Y-73210843D01*
X157596000Y-73269242D01*
X158826266Y-73269242D01*
X159618512Y-74061488D01*
X159919253Y-74262437D01*
X160274000Y-74333000D01*
X163624024Y-74333000D01*
X161351749Y-76605275D01*
X160713789Y-76604718D01*
X160115582Y-76851892D01*
X160015352Y-76951947D01*
X159927328Y-76815154D01*
X159684385Y-76649157D01*
X159396000Y-76590758D01*
X157596000Y-76590758D01*
X157326590Y-76641451D01*
X157079154Y-76800672D01*
X156913157Y-77043615D01*
X156860226Y-77305000D01*
X153924000Y-77305000D01*
X153569252Y-77375564D01*
X153294721Y-77559000D01*
X153268512Y-77576512D01*
X151109512Y-79735512D01*
X150908564Y-80036252D01*
X150838000Y-80391000D01*
X150838000Y-85762103D01*
X150685752Y-85534248D01*
X150190358Y-85203236D01*
X149854539Y-85136437D01*
X150261488Y-84729488D01*
X150296936Y-84676436D01*
X150462436Y-84428748D01*
X150533000Y-84074000D01*
X150533000Y-79123976D01*
X151798999Y-77857977D01*
X152146000Y-77927000D01*
X152806894Y-77795540D01*
X153367173Y-77421173D01*
X153741540Y-76860894D01*
X153873000Y-76200000D01*
X153873000Y-69469000D01*
X153741540Y-68808106D01*
X153529656Y-68491000D01*
X162862024Y-68491000D01*
X161351749Y-70001275D01*
X161351749Y-70001275D01*
G37*
X161351749Y-70001275D02*
X160713789Y-70000718D01*
X160115582Y-70247892D01*
X160015352Y-70347947D01*
X159927328Y-70211154D01*
X159684385Y-70045157D01*
X159396000Y-69986758D01*
X157596000Y-69986758D01*
X157326590Y-70037451D01*
X157079154Y-70196672D01*
X156913157Y-70439615D01*
X156854758Y-70728000D01*
X156854758Y-72528000D01*
X156905451Y-72797410D01*
X157064672Y-73044846D01*
X157307615Y-73210843D01*
X157596000Y-73269242D01*
X158826266Y-73269242D01*
X159618512Y-74061488D01*
X159919253Y-74262437D01*
X160274000Y-74333000D01*
X163624024Y-74333000D01*
X161351749Y-76605275D01*
X160713789Y-76604718D01*
X160115582Y-76851892D01*
X160015352Y-76951947D01*
X159927328Y-76815154D01*
X159684385Y-76649157D01*
X159396000Y-76590758D01*
X157596000Y-76590758D01*
X157326590Y-76641451D01*
X157079154Y-76800672D01*
X156913157Y-77043615D01*
X156860226Y-77305000D01*
X153924000Y-77305000D01*
X153569252Y-77375564D01*
X153294721Y-77559000D01*
X153268512Y-77576512D01*
X151109512Y-79735512D01*
X150908564Y-80036252D01*
X150838000Y-80391000D01*
X150838000Y-85762103D01*
X150685752Y-85534248D01*
X150190358Y-85203236D01*
X149854539Y-85136437D01*
X150261488Y-84729488D01*
X150296936Y-84676436D01*
X150462436Y-84428748D01*
X150533000Y-84074000D01*
X150533000Y-79123976D01*
X151798999Y-77857977D01*
X152146000Y-77927000D01*
X152806894Y-77795540D01*
X153367173Y-77421173D01*
X153741540Y-76860894D01*
X153873000Y-76200000D01*
X153873000Y-69469000D01*
X153741540Y-68808106D01*
X153529656Y-68491000D01*
X162862024Y-68491000D01*
X161351749Y-70001275D01*
G36*
X162522000Y-85341024D02*
X162430024Y-85433000D01*
X162247734Y-85433000D01*
X162147722Y-85283322D01*
X162352846Y-85151328D01*
X162518843Y-84908385D01*
X162522000Y-84892795D01*
X162522000Y-85341024D01*
X162522000Y-85341024D01*
G37*
X162522000Y-85341024D02*
X162430024Y-85433000D01*
X162247734Y-85433000D01*
X162147722Y-85283322D01*
X162352846Y-85151328D01*
X162518843Y-84908385D01*
X162522000Y-84892795D01*
X162522000Y-85341024D01*
G36*
X190575281Y-80110747D02*
X190606512Y-80157488D01*
X191513187Y-81064163D01*
X191512735Y-81582407D01*
X191744717Y-82143846D01*
X192150494Y-82550332D01*
X191746227Y-82953894D01*
X191513265Y-83514928D01*
X191512735Y-84122407D01*
X191744717Y-84683846D01*
X192150494Y-85090332D01*
X191807227Y-85433000D01*
X187153090Y-85433000D01*
X186969283Y-84988154D01*
X186601000Y-84619227D01*
X186601000Y-83949976D01*
X190393488Y-80157488D01*
X190424719Y-80110747D01*
X190500000Y-79998081D01*
X190575281Y-80110747D01*
X190575281Y-80110747D01*
G37*
X190575281Y-80110747D02*
X190606512Y-80157488D01*
X191513187Y-81064163D01*
X191512735Y-81582407D01*
X191744717Y-82143846D01*
X192150494Y-82550332D01*
X191746227Y-82953894D01*
X191513265Y-83514928D01*
X191512735Y-84122407D01*
X191744717Y-84683846D01*
X192150494Y-85090332D01*
X191807227Y-85433000D01*
X187153090Y-85433000D01*
X186969283Y-84988154D01*
X186601000Y-84619227D01*
X186601000Y-83949976D01*
X190393488Y-80157488D01*
X190424719Y-80110747D01*
X190500000Y-79998081D01*
X190575281Y-80110747D01*
G36*
X145538810Y-81750214D02*
X141899011Y-85390013D01*
X141825668Y-85280248D01*
X141540942Y-85090000D01*
X141825668Y-84899752D01*
X142156680Y-84404358D01*
X142272916Y-83820000D01*
X142156680Y-83235642D01*
X141825668Y-82740248D01*
X141330274Y-82409236D01*
X140745916Y-82293000D01*
X140686084Y-82293000D01*
X140530853Y-82323877D01*
X140032976Y-81826000D01*
X145161000Y-81826000D01*
X145515748Y-81755436D01*
X145538819Y-81740020D01*
X145538810Y-81750214D01*
X145538810Y-81750214D01*
G37*
X145538810Y-81750214D02*
X141899011Y-85390013D01*
X141825668Y-85280248D01*
X141540942Y-85090000D01*
X141825668Y-84899752D01*
X142156680Y-84404358D01*
X142272916Y-83820000D01*
X142156680Y-83235642D01*
X141825668Y-82740248D01*
X141330274Y-82409236D01*
X140745916Y-82293000D01*
X140686084Y-82293000D01*
X140530853Y-82323877D01*
X140032976Y-81826000D01*
X145161000Y-81826000D01*
X145515748Y-81755436D01*
X145538819Y-81740020D01*
X145538810Y-81750214D01*
G36*
X159494758Y-83796266D02*
X158602512Y-84688512D01*
X158407000Y-84981116D01*
X158407000Y-84584976D01*
X159494758Y-83497218D01*
X159494758Y-83796266D01*
X159494758Y-83796266D01*
G37*
X159494758Y-83796266D02*
X158602512Y-84688512D01*
X158407000Y-84981116D01*
X158407000Y-84584976D01*
X159494758Y-83497218D01*
X159494758Y-83796266D01*
G36*
X188811000Y-74892773D02*
X188811000Y-79118024D01*
X185018512Y-82910512D01*
X184817564Y-83211252D01*
X184747000Y-83566000D01*
X184747000Y-84619761D01*
X184441227Y-84925000D01*
X183604239Y-84925000D01*
X183238106Y-84558227D01*
X182677072Y-84325265D01*
X182101236Y-84324763D01*
X182101195Y-84324735D01*
X181964748Y-84233564D01*
X181610000Y-84163000D01*
X179310986Y-84163000D01*
X179326735Y-84125072D01*
X179327265Y-83517593D01*
X179095283Y-82956154D01*
X178689506Y-82549668D01*
X179093773Y-82146106D01*
X179326735Y-81585072D01*
X179327265Y-80977593D01*
X179095283Y-80416154D01*
X178689506Y-80009668D01*
X179093773Y-79606106D01*
X179326735Y-79045072D01*
X179327265Y-78437593D01*
X179310492Y-78397000D01*
X180871870Y-78397000D01*
X180961236Y-78846274D01*
X181292248Y-79341668D01*
X181787642Y-79672680D01*
X182372000Y-79788916D01*
X182956358Y-79672680D01*
X183163519Y-79534259D01*
X183226822Y-79629000D01*
X183240512Y-79649488D01*
X184002512Y-80411488D01*
X184303253Y-80612437D01*
X184658000Y-80683000D01*
X186817000Y-80683000D01*
X187171748Y-80612436D01*
X187472488Y-80411488D01*
X188234488Y-79649488D01*
X188435437Y-79348747D01*
X188506000Y-78994000D01*
X188506000Y-74587240D01*
X188811000Y-74892773D01*
X188811000Y-74892773D01*
G37*
X188811000Y-74892773D02*
X188811000Y-79118024D01*
X185018512Y-82910512D01*
X184817564Y-83211252D01*
X184747000Y-83566000D01*
X184747000Y-84619761D01*
X184441227Y-84925000D01*
X183604239Y-84925000D01*
X183238106Y-84558227D01*
X182677072Y-84325265D01*
X182101236Y-84324763D01*
X182101195Y-84324735D01*
X181964748Y-84233564D01*
X181610000Y-84163000D01*
X179310986Y-84163000D01*
X179326735Y-84125072D01*
X179327265Y-83517593D01*
X179095283Y-82956154D01*
X178689506Y-82549668D01*
X179093773Y-82146106D01*
X179326735Y-81585072D01*
X179327265Y-80977593D01*
X179095283Y-80416154D01*
X178689506Y-80009668D01*
X179093773Y-79606106D01*
X179326735Y-79045072D01*
X179327265Y-78437593D01*
X179310492Y-78397000D01*
X180871870Y-78397000D01*
X180961236Y-78846274D01*
X181292248Y-79341668D01*
X181787642Y-79672680D01*
X182372000Y-79788916D01*
X182956358Y-79672680D01*
X183163519Y-79534259D01*
X183226822Y-79629000D01*
X183240512Y-79649488D01*
X184002512Y-80411488D01*
X184303253Y-80612437D01*
X184658000Y-80683000D01*
X186817000Y-80683000D01*
X187171748Y-80612436D01*
X187472488Y-80411488D01*
X188234488Y-79649488D01*
X188435437Y-79348747D01*
X188506000Y-78994000D01*
X188506000Y-74587240D01*
X188811000Y-74892773D01*
G36*
X122424735Y-81582407D02*
X122656717Y-82143846D01*
X123062494Y-82550332D01*
X122658227Y-82953894D01*
X122425265Y-83514928D01*
X122424735Y-84122407D01*
X122656717Y-84683846D01*
X122897450Y-84925000D01*
X120612239Y-84925000D01*
X120307000Y-84619227D01*
X120307000Y-83441976D01*
X122424960Y-81324016D01*
X122424735Y-81582407D01*
X122424735Y-81582407D01*
G37*
X122424735Y-81582407D02*
X122656717Y-82143846D01*
X123062494Y-82550332D01*
X122658227Y-82953894D01*
X122425265Y-83514928D01*
X122424735Y-84122407D01*
X122656717Y-84683846D01*
X122897450Y-84925000D01*
X120612239Y-84925000D01*
X120307000Y-84619227D01*
X120307000Y-83441976D01*
X122424960Y-81324016D01*
X122424735Y-81582407D01*
G36*
X122425265Y-78434928D02*
X122424735Y-79042407D01*
X122441508Y-79083000D01*
X122428000Y-79083000D01*
X122073252Y-79153564D01*
X121883185Y-79280563D01*
X121772512Y-79354512D01*
X118724512Y-82402512D01*
X118523564Y-82703252D01*
X118453000Y-83058000D01*
X118453000Y-84619761D01*
X118147227Y-84925000D01*
X117310239Y-84925000D01*
X116944106Y-84558227D01*
X116383072Y-84325265D01*
X115775593Y-84324735D01*
X115214154Y-84556717D01*
X114845227Y-84925000D01*
X113921976Y-84925000D01*
X112687000Y-83690024D01*
X112687000Y-78848884D01*
X112851281Y-79094747D01*
X112882512Y-79141488D01*
X114533512Y-80792488D01*
X114834253Y-80993437D01*
X115189000Y-81064000D01*
X116967000Y-81064000D01*
X117321748Y-80993436D01*
X117622488Y-80792488D01*
X118257488Y-80157488D01*
X118458437Y-79856747D01*
X118529000Y-79502000D01*
X118529000Y-79494515D01*
X118795642Y-79672680D01*
X119380000Y-79788916D01*
X119964358Y-79672680D01*
X120459752Y-79341668D01*
X120790764Y-78846274D01*
X120907000Y-78261916D01*
X120907000Y-78202084D01*
X120895247Y-78143000D01*
X122546484Y-78143000D01*
X122425265Y-78434928D01*
X122425265Y-78434928D01*
G37*
X122425265Y-78434928D02*
X122424735Y-79042407D01*
X122441508Y-79083000D01*
X122428000Y-79083000D01*
X122073252Y-79153564D01*
X121883185Y-79280563D01*
X121772512Y-79354512D01*
X118724512Y-82402512D01*
X118523564Y-82703252D01*
X118453000Y-83058000D01*
X118453000Y-84619761D01*
X118147227Y-84925000D01*
X117310239Y-84925000D01*
X116944106Y-84558227D01*
X116383072Y-84325265D01*
X115775593Y-84324735D01*
X115214154Y-84556717D01*
X114845227Y-84925000D01*
X113921976Y-84925000D01*
X112687000Y-83690024D01*
X112687000Y-78848884D01*
X112851281Y-79094747D01*
X112882512Y-79141488D01*
X114533512Y-80792488D01*
X114834253Y-80993437D01*
X115189000Y-81064000D01*
X116967000Y-81064000D01*
X117321748Y-80993436D01*
X117622488Y-80792488D01*
X118257488Y-80157488D01*
X118458437Y-79856747D01*
X118529000Y-79502000D01*
X118529000Y-79494515D01*
X118795642Y-79672680D01*
X119380000Y-79788916D01*
X119964358Y-79672680D01*
X120459752Y-79341668D01*
X120790764Y-78846274D01*
X120907000Y-78261916D01*
X120907000Y-78202084D01*
X120895247Y-78143000D01*
X122546484Y-78143000D01*
X122425265Y-78434928D01*
G36*
X176273265Y-78434928D02*
X176272735Y-79042407D01*
X176504717Y-79603846D01*
X176910494Y-80010332D01*
X176506227Y-80413894D01*
X176273265Y-80974928D01*
X176272735Y-81582407D01*
X176504717Y-82143846D01*
X176910494Y-82550332D01*
X176506227Y-82953894D01*
X176273265Y-83514928D01*
X176273037Y-83776061D01*
X175661488Y-83164512D01*
X175532744Y-83078488D01*
X175360748Y-82963564D01*
X175006000Y-82893000D01*
X169867734Y-82893000D01*
X169765668Y-82740248D01*
X169270274Y-82409236D01*
X168685916Y-82293000D01*
X168626084Y-82293000D01*
X168041726Y-82409236D01*
X167932000Y-82482553D01*
X167932000Y-80266976D01*
X168325734Y-79873242D01*
X169556000Y-79873242D01*
X169825410Y-79822549D01*
X170072846Y-79663328D01*
X170175677Y-79512831D01*
X170273175Y-79610499D01*
X170870950Y-79858717D01*
X171518211Y-79859282D01*
X172116418Y-79612108D01*
X172574499Y-79154825D01*
X172822717Y-78557050D01*
X172822857Y-78397000D01*
X176289014Y-78397000D01*
X176273265Y-78434928D01*
X176273265Y-78434928D01*
G37*
X176273265Y-78434928D02*
X176272735Y-79042407D01*
X176504717Y-79603846D01*
X176910494Y-80010332D01*
X176506227Y-80413894D01*
X176273265Y-80974928D01*
X176272735Y-81582407D01*
X176504717Y-82143846D01*
X176910494Y-82550332D01*
X176506227Y-82953894D01*
X176273265Y-83514928D01*
X176273037Y-83776061D01*
X175661488Y-83164512D01*
X175532744Y-83078488D01*
X175360748Y-82963564D01*
X175006000Y-82893000D01*
X169867734Y-82893000D01*
X169765668Y-82740248D01*
X169270274Y-82409236D01*
X168685916Y-82293000D01*
X168626084Y-82293000D01*
X168041726Y-82409236D01*
X167932000Y-82482553D01*
X167932000Y-80266976D01*
X168325734Y-79873242D01*
X169556000Y-79873242D01*
X169825410Y-79822549D01*
X170072846Y-79663328D01*
X170175677Y-79512831D01*
X170273175Y-79610499D01*
X170870950Y-79858717D01*
X171518211Y-79859282D01*
X172116418Y-79612108D01*
X172574499Y-79154825D01*
X172822717Y-78557050D01*
X172822857Y-78397000D01*
X176289014Y-78397000D01*
X176273265Y-78434928D01*
G36*
X148679000Y-83690024D02*
X148593000Y-83776024D01*
X148593000Y-81535333D01*
X148593265Y-81231593D01*
X148361283Y-80670154D01*
X147932106Y-80240227D01*
X147371072Y-80007265D01*
X147363717Y-80007259D01*
X147703976Y-79667000D01*
X148679000Y-79667000D01*
X148679000Y-83690024D01*
X148679000Y-83690024D01*
G37*
X148679000Y-83690024D02*
X148593000Y-83776024D01*
X148593000Y-81535333D01*
X148593265Y-81231593D01*
X148361283Y-80670154D01*
X147932106Y-80240227D01*
X147371072Y-80007265D01*
X147363717Y-80007259D01*
X147703976Y-79667000D01*
X148679000Y-79667000D01*
X148679000Y-83690024D01*
G36*
X125479261Y-83521763D02*
X125479265Y-83517593D01*
X125247283Y-82956154D01*
X124841506Y-82549668D01*
X125184773Y-82207000D01*
X126794024Y-82207000D01*
X125479261Y-83521763D01*
X125479261Y-83521763D01*
G37*
X125479261Y-83521763D02*
X125479265Y-83517593D01*
X125247283Y-82956154D01*
X124841506Y-82549668D01*
X125184773Y-82207000D01*
X126794024Y-82207000D01*
X125479261Y-83521763D01*
G36*
X164300000Y-82806976D02*
X164300000Y-82949116D01*
X164104488Y-82656512D01*
X163908976Y-82461000D01*
X163954024Y-82461000D01*
X164300000Y-82806976D01*
X164300000Y-82806976D01*
G37*
X164300000Y-82806976D02*
X164300000Y-82949116D01*
X164104488Y-82656512D01*
X163908976Y-82461000D01*
X163954024Y-82461000D01*
X164300000Y-82806976D01*
G36*
X157666492Y-82703532D02*
X157620764Y-82473642D01*
X157612317Y-82461000D01*
X157909024Y-82461000D01*
X157666492Y-82703532D01*
X157666492Y-82703532D01*
G37*
X157666492Y-82703532D02*
X157620764Y-82473642D01*
X157612317Y-82461000D01*
X157909024Y-82461000D01*
X157666492Y-82703532D01*
G36*
X167014758Y-78562266D02*
X166349512Y-79227512D01*
X166148564Y-79528252D01*
X166078000Y-79883000D01*
X166078000Y-82060116D01*
X165882488Y-81767512D01*
X164993488Y-80878512D01*
X164894785Y-80812561D01*
X164692748Y-80677564D01*
X164509802Y-80641174D01*
X167014758Y-78136218D01*
X167014758Y-78562266D01*
X167014758Y-78562266D01*
G37*
X167014758Y-78562266D02*
X166349512Y-79227512D01*
X166148564Y-79528252D01*
X166078000Y-79883000D01*
X166078000Y-82060116D01*
X165882488Y-81767512D01*
X164993488Y-80878512D01*
X164894785Y-80812561D01*
X164692748Y-80677564D01*
X164509802Y-80641174D01*
X167014758Y-78136218D01*
X167014758Y-78562266D01*
G36*
X139089275Y-77916251D02*
X139088718Y-78554211D01*
X139307209Y-79083000D01*
X134737242Y-79083000D01*
X134737242Y-77332000D01*
X134686549Y-77062590D01*
X134527328Y-76815154D01*
X134284385Y-76649157D01*
X133996000Y-76590758D01*
X132765734Y-76590758D01*
X132031976Y-75857000D01*
X137030024Y-75857000D01*
X139089275Y-77916251D01*
X139089275Y-77916251D01*
G37*
X139089275Y-77916251D02*
X139088718Y-78554211D01*
X139307209Y-79083000D01*
X134737242Y-79083000D01*
X134737242Y-77332000D01*
X134686549Y-77062590D01*
X134527328Y-76815154D01*
X134284385Y-76649157D01*
X133996000Y-76590758D01*
X132765734Y-76590758D01*
X132031976Y-75857000D01*
X137030024Y-75857000D01*
X139089275Y-77916251D01*
G36*
X128928718Y-78554211D02*
X129147209Y-79083000D01*
X125462986Y-79083000D01*
X125478735Y-79045072D01*
X125479265Y-78437593D01*
X125357542Y-78143000D01*
X128929077Y-78143000D01*
X128928718Y-78554211D01*
X128928718Y-78554211D01*
G37*
X128928718Y-78554211D02*
X129147209Y-79083000D01*
X125462986Y-79083000D01*
X125478735Y-79045072D01*
X125479265Y-78437593D01*
X125357542Y-78143000D01*
X128929077Y-78143000D01*
X128928718Y-78554211D01*
G36*
X162662794Y-78469230D02*
X162663277Y-77915699D01*
X165229976Y-75349000D01*
X165783024Y-75349000D01*
X162662794Y-78469230D01*
X162662794Y-78469230D01*
G37*
X162662794Y-78469230D02*
X162663277Y-77915699D01*
X165229976Y-75349000D01*
X165783024Y-75349000D01*
X162662794Y-78469230D01*
G36*
X116565512Y-72156488D02*
X116866252Y-72357436D01*
X116943268Y-72372756D01*
X115422512Y-73893512D01*
X115221564Y-74194252D01*
X115151000Y-74549000D01*
X115151000Y-77020266D01*
X114998248Y-77122332D01*
X114667236Y-77617726D01*
X114553333Y-78190357D01*
X114465000Y-78102024D01*
X114465000Y-70055976D01*
X116565512Y-72156488D01*
X116565512Y-72156488D01*
G37*
X116565512Y-72156488D02*
X116866252Y-72357436D01*
X116943268Y-72372756D01*
X115422512Y-73893512D01*
X115221564Y-74194252D01*
X115151000Y-74549000D01*
X115151000Y-77020266D01*
X114998248Y-77122332D01*
X114667236Y-77617726D01*
X114553333Y-78190357D01*
X114465000Y-78102024D01*
X114465000Y-70055976D01*
X116565512Y-72156488D01*
G36*
X150488023Y-76547001D02*
X149222024Y-77813000D01*
X148033976Y-77813000D01*
X149258999Y-76587977D01*
X149606000Y-76657000D01*
X150266894Y-76525540D01*
X150458313Y-76397638D01*
X150488023Y-76547001D01*
X150488023Y-76547001D01*
G37*
X150488023Y-76547001D02*
X149222024Y-77813000D01*
X148033976Y-77813000D01*
X149258999Y-76587977D01*
X149606000Y-76657000D01*
X150266894Y-76525540D01*
X150458313Y-76397638D01*
X150488023Y-76547001D01*
G36*
X193510000Y-76964976D02*
X193510000Y-77281749D01*
X193345072Y-77213265D01*
X192737593Y-77212735D01*
X192189000Y-77439409D01*
X192189000Y-75643976D01*
X193510000Y-76964976D01*
X193510000Y-76964976D01*
G37*
X193510000Y-76964976D02*
X193510000Y-77281749D01*
X193345072Y-77213265D01*
X192737593Y-77212735D01*
X192189000Y-77439409D01*
X192189000Y-75643976D01*
X193510000Y-76964976D01*
G36*
X184747000Y-73662976D02*
X184747000Y-77020266D01*
X184648214Y-77086273D01*
X184551488Y-76941512D01*
X183662488Y-76052512D01*
X183533744Y-75966488D01*
X183458658Y-75916318D01*
X184297488Y-75077488D01*
X184332936Y-75024436D01*
X184498436Y-74776748D01*
X184569000Y-74422000D01*
X184569000Y-73484976D01*
X184747000Y-73662976D01*
X184747000Y-73662976D01*
G37*
X184747000Y-73662976D02*
X184747000Y-77020266D01*
X184648214Y-77086273D01*
X184551488Y-76941512D01*
X183662488Y-76052512D01*
X183533744Y-75966488D01*
X183458658Y-75916318D01*
X184297488Y-75077488D01*
X184332936Y-75024436D01*
X184498436Y-74776748D01*
X184569000Y-74422000D01*
X184569000Y-73484976D01*
X184747000Y-73662976D01*
G36*
X186652000Y-77054343D02*
X186601000Y-77020266D01*
X186601000Y-73279000D01*
X186569261Y-73119436D01*
X186530437Y-72924253D01*
X186329488Y-72623512D01*
X185358873Y-71652897D01*
X185647748Y-71595436D01*
X185948488Y-71394488D01*
X186652000Y-70690976D01*
X186652000Y-77054343D01*
X186652000Y-77054343D01*
G37*
X186652000Y-77054343D02*
X186601000Y-77020266D01*
X186601000Y-73279000D01*
X186569261Y-73119436D01*
X186530437Y-72924253D01*
X186329488Y-72623512D01*
X185358873Y-71652897D01*
X185647748Y-71595436D01*
X185948488Y-71394488D01*
X186652000Y-70690976D01*
X186652000Y-77054343D01*
G36*
X117939320Y-74244358D02*
X118270332Y-74739752D01*
X118765726Y-75070764D01*
X119143963Y-75146000D01*
X118999000Y-75146000D01*
X118644252Y-75216564D01*
X118361585Y-75405436D01*
X118343512Y-75417512D01*
X117005000Y-76756024D01*
X117005000Y-74932976D01*
X117898555Y-74039421D01*
X117939320Y-74244358D01*
X117939320Y-74244358D01*
G37*
X117939320Y-74244358D02*
X118270332Y-74739752D01*
X118765726Y-75070764D01*
X119143963Y-75146000D01*
X118999000Y-75146000D01*
X118644252Y-75216564D01*
X118361585Y-75405436D01*
X118343512Y-75417512D01*
X117005000Y-76756024D01*
X117005000Y-74932976D01*
X117898555Y-74039421D01*
X117939320Y-74244358D01*
G36*
X137822512Y-74109488D02*
X137768748Y-74073564D01*
X137414000Y-74003000D01*
X121033976Y-74003000D01*
X120896112Y-73865136D01*
X120936916Y-73660000D01*
X120843427Y-73190000D01*
X129921000Y-73190000D01*
X130025186Y-73169276D01*
X130230950Y-73254717D01*
X130878211Y-73255282D01*
X131476418Y-73008108D01*
X131576648Y-72908053D01*
X131664672Y-73044846D01*
X131907615Y-73210843D01*
X132196000Y-73269242D01*
X133996000Y-73269242D01*
X134265410Y-73218549D01*
X134512846Y-73059328D01*
X134678843Y-72816385D01*
X134737242Y-72528000D01*
X134737242Y-71024218D01*
X137822512Y-74109488D01*
X137822512Y-74109488D01*
G37*
X137822512Y-74109488D02*
X137768748Y-74073564D01*
X137414000Y-74003000D01*
X121033976Y-74003000D01*
X120896112Y-73865136D01*
X120936916Y-73660000D01*
X120843427Y-73190000D01*
X129921000Y-73190000D01*
X130025186Y-73169276D01*
X130230950Y-73254717D01*
X130878211Y-73255282D01*
X131476418Y-73008108D01*
X131576648Y-72908053D01*
X131664672Y-73044846D01*
X131907615Y-73210843D01*
X132196000Y-73269242D01*
X133996000Y-73269242D01*
X134265410Y-73218549D01*
X134512846Y-73059328D01*
X134678843Y-72816385D01*
X134737242Y-72528000D01*
X134737242Y-71024218D01*
X137822512Y-74109488D01*
G36*
X180593905Y-73495000D02*
X180037976Y-73495000D01*
X180342976Y-73190000D01*
X180654573Y-73190000D01*
X180593905Y-73495000D01*
X180593905Y-73495000D01*
G37*
X180593905Y-73495000D02*
X180037976Y-73495000D01*
X180342976Y-73190000D01*
X180654573Y-73190000D01*
X180593905Y-73495000D01*
G36*
X188811000Y-70574773D02*
X188811000Y-72427761D01*
X188506000Y-72732229D01*
X188506000Y-70269240D01*
X188811000Y-70574773D01*
X188811000Y-70574773D01*
G37*
X188811000Y-70574773D02*
X188811000Y-72427761D01*
X188506000Y-72732229D01*
X188506000Y-70269240D01*
X188811000Y-70574773D01*
G36*
X178432024Y-72479000D02*
X172604323Y-72479000D01*
X172625500Y-72428000D01*
X178483024Y-72428000D01*
X178432024Y-72479000D01*
X178432024Y-72479000D01*
G37*
X178432024Y-72479000D02*
X172604323Y-72479000D01*
X172625500Y-72428000D01*
X178483024Y-72428000D01*
X178432024Y-72479000D01*
G36*
X168986266Y-69986758D02*
X167756000Y-69986758D01*
X167486590Y-70037451D01*
X167239154Y-70196672D01*
X167073157Y-70439615D01*
X167014758Y-70728000D01*
X167014758Y-72479000D01*
X162444323Y-72479000D01*
X162662717Y-71953050D01*
X162663277Y-71311699D01*
X164086976Y-69888000D01*
X169085024Y-69888000D01*
X168986266Y-69986758D01*
X168986266Y-69986758D01*
G37*
X168986266Y-69986758D02*
X167756000Y-69986758D01*
X167486590Y-70037451D01*
X167239154Y-70196672D01*
X167073157Y-70439615D01*
X167014758Y-70728000D01*
X167014758Y-72479000D01*
X162444323Y-72479000D01*
X162662717Y-71953050D01*
X162663277Y-71311699D01*
X164086976Y-69888000D01*
X169085024Y-69888000D01*
X168986266Y-69986758D01*
G36*
X142125208Y-70030184D02*
X142086590Y-70037451D01*
X141839154Y-70196672D01*
X141736323Y-70347169D01*
X141638825Y-70249501D01*
X141041050Y-70001283D01*
X140399699Y-70000723D01*
X138381976Y-67983000D01*
X140078024Y-67983000D01*
X142125208Y-70030184D01*
X142125208Y-70030184D01*
G37*
X142125208Y-70030184D02*
X142086590Y-70037451D01*
X141839154Y-70196672D01*
X141736323Y-70347169D01*
X141638825Y-70249501D01*
X141041050Y-70001283D01*
X140399699Y-70000723D01*
X138381976Y-67983000D01*
X140078024Y-67983000D01*
X142125208Y-70030184D01*
G36*
X184909024Y-69812000D02*
X183581427Y-69812000D01*
X183674916Y-69342000D01*
X183558680Y-68757642D01*
X183380515Y-68491000D01*
X186230024Y-68491000D01*
X184909024Y-69812000D01*
X184909024Y-69812000D01*
G37*
X184909024Y-69812000D02*
X183581427Y-69812000D01*
X183674916Y-69342000D01*
X183558680Y-68757642D01*
X183380515Y-68491000D01*
X186230024Y-68491000D01*
X184909024Y-69812000D01*
G36*
X125981024Y-69812000D02*
X120843427Y-69812000D01*
X120929357Y-69380000D01*
X126413024Y-69380000D01*
X125981024Y-69812000D01*
X125981024Y-69812000D01*
G37*
X125981024Y-69812000D02*
X120843427Y-69812000D01*
X120929357Y-69380000D01*
X126413024Y-69380000D01*
X125981024Y-69812000D01*
G36*
X118270332Y-68262248D02*
X117939320Y-68757642D01*
X117823084Y-69342000D01*
X117916573Y-69812000D01*
X117858976Y-69812000D01*
X116029976Y-67983000D01*
X118688256Y-67983000D01*
X118270332Y-68262248D01*
X118270332Y-68262248D01*
G37*
X118270332Y-68262248D02*
X117939320Y-68757642D01*
X117823084Y-69342000D01*
X117916573Y-69812000D01*
X117858976Y-69812000D01*
X116029976Y-67983000D01*
X118688256Y-67983000D01*
X118270332Y-68262248D01*
M02*
