M48
INCH,TZ
T1C0.030
T2C0.031
T3C0.035
T4C0.047
%
G90
G05
T1
X42800Y-31000
X42800Y-32000
X42800Y-33000
X42800Y-34000
X42800Y-35000
X42800Y-36000
X42800Y-37000
X42800Y-38000
X42800Y-39000
X42800Y-40000
X42800Y-41000
X42800Y-42000
X42800Y-43000
X42800Y-44000
X42800Y-45000
X48800Y-31000
X48800Y-32000
X48800Y-33000
X48800Y-34000
X48800Y-35000
X48800Y-36000
X48800Y-37000
X48800Y-38000
X48800Y-39000
X48800Y-40000
X48800Y-41000
X48800Y-42000
X48800Y-43000
X48800Y-44000
X48800Y-45000
X57900Y-32100
X57900Y-34100
X60900Y-32100
X60900Y-34100
X70000Y-31000
X70000Y-32000
X70000Y-33000
X70000Y-34000
X70000Y-35000
X70000Y-36000
X70000Y-37000
X70000Y-38000
X70000Y-39000
X70000Y-40000
X70000Y-41000
X70000Y-42000
X70000Y-43000
X70000Y-44000
X70000Y-45000
X76000Y-31000
X76000Y-32000
X76000Y-33000
X76000Y-34000
X76000Y-35000
X76000Y-36000
X76000Y-37000
X76000Y-38000
X76000Y-39000
X76000Y-40000
X76000Y-41000
X76000Y-42000
X76000Y-43000
X76000Y-44000
X76000Y-45000
T2
X44000Y-27300
X44000Y-29000
X45700Y-30800
X45700Y-33800
X47000Y-27300
X47000Y-29000
X47000Y-30800
X47000Y-33800
X52400Y-33000
X52400Y-34000
X52400Y-35000
X52400Y-36000
X52400Y-37000
X52400Y-38000
X52400Y-39000
X52400Y-40000
X52400Y-41000
X52400Y-43000
X52400Y-44000
X52400Y-45000
X52400Y-46000
X55400Y-33000
X55400Y-34000
X55400Y-35000
X55400Y-36000
X55400Y-37000
X55400Y-38000
X55400Y-39000
X55400Y-40000
X55400Y-41000
X55400Y-43000
X55400Y-44000
X55400Y-45000
X55400Y-46000
X57200Y-35600
X57200Y-41200
X57400Y-37400
X57400Y-39369
X57400Y-42800
X57400Y-44400
X57400Y-46000
X58184Y-35600
X58184Y-41200
X60616Y-35600
X60616Y-41200
X61400Y-37400
X61400Y-39369
X61400Y-42800
X61400Y-44400
X61400Y-46000
X61600Y-35600
X61600Y-41200
X63400Y-33000
X63400Y-34000
X63400Y-35000
X63400Y-36000
X63400Y-37000
X63400Y-38000
X63400Y-39000
X63400Y-40000
X63400Y-41000
X63400Y-43000
X63400Y-44000
X63400Y-45000
X63400Y-46000
X66400Y-33000
X66400Y-34000
X66400Y-35000
X66400Y-36000
X66400Y-37000
X66400Y-38000
X66400Y-39000
X66400Y-40000
X66400Y-41000
X66400Y-43000
X66400Y-44000
X66400Y-45000
X66400Y-46000
X71700Y-27300
X71700Y-29000
X71800Y-30800
X71800Y-33800
X73100Y-30800
X73100Y-33800
X74700Y-27300
X74700Y-29000
T3
X51400Y-28200
X51400Y-30800
X52400Y-28200
X52400Y-30800
X55400Y-28200
X55400Y-30800
X56400Y-28200
X56400Y-30800
X62400Y-28200
X62400Y-30800
X63400Y-28200
X63400Y-30800
X66400Y-28200
X66400Y-30800
X67400Y-28200
X67400Y-30800
T4
X58900Y-28400
X59900Y-28400
T0
M30
